<?xml version="1.0" encoding="utf-8"?>
<!-- Generator: Adobe Illustrator 24.0.1, SVG Export Plug-In . SVG Version: 6.00 Build 0)  -->
<svg version="1.1" id="Layer_1" xmlns="http://www.w3.org/2000/svg" xmlns:xlink="http://www.w3.org/1999/xlink" x="0px" y="0px"
	 viewBox="0 0 3693.4 2855.4" style="enable-background:new 0 0 3693.4 2855.4;" xml:space="preserve">
<style type="text/css">
	.st0{fill:#8C2F39;}
</style>
<path class="st0" d="M953.9,382.1c-0.4,72.2-0.7,144.4-1.1,216.6c0,8.6,0,17.3,0,28.3c-8.8,0.4-16.5,0.9-24.1,1.1
	c-71.5,0.4-143.5-4-214.4,2c-189,16.5-339.5,97.9-411,282.4c-58.6,151.6-42.8,300.2,49.8,437.6c72.4,107.3,178.2,160.6,301.3,184.5
	c35.1,6.8,71.7,8.6,107.7,9c100.3,1.1,200.8,0.4,304.2,0.4c0-9.9,0-18.9,0-28.1c-0.9-101.2-1.3-202.3,22-301.7
	c52.2-222.1,169-395.4,379.6-495.3c244.3-116.1,604.4-86,820.3,141.1c106.2,111.7,169,245.1,195.8,395.6
	c24.6,138.5,22.2,275.9-29,409.5c-21.9,57-50.9,109.9-87.6,158.6c-4.2,5.5-8.3,11.2-14.3,19.3c9.9,0.6,16.7,1.1,23.5,1.1
	c290.5,0,580.9,0.4,871.4-0.4c30.7,0,62.3-3.1,92-10.3c94.6-22.4,108.4-150.3,51.8-198.1c-28.7-24.3-61.4-47.8-96.1-60.4
	c-93.3-33.8-188.7-62.3-283.7-91.7c-94.4-29.2-190.3-56.2-274.7-108.8c-91.5-57-172.1-126.8-191.6-240.9
	c-31.6-184.6,38.2-364,265.8-426c66.7-18.2,134.9-24.8,203.6-25c210.9-0.6,422-0.2,632.9-0.2c5.7,0,11.2,0.6,18,0.9
	c0,81.6,0,162,0,244.9c-9,0-17.5,0-25.9,0c-224,0-447.9-0.2-671.9,0.4c-27.2,0-55.1,2.6-81.4,9c-79.7,19.5-110,123.6-50,180.2
	c27.9,26.5,64.1,48.3,100.7,60.8c97.9,34,198.4,60.6,297.1,92.4c65,20.9,131.4,41,192.4,70.9c54.9,26.8,106.9,62.5,153.8,101.8
	c79.9,67.1,114.5,157.6,112.4,261.4c-2.2,118.9-38.4,222.9-136.5,297.8c-65.6,50-141.5,73.9-222.5,82.3c-35.1,3.7-70.5,4.6-106,4.6
	c-543.3,0.2-1086.7,0.2-1630,0.2c-8.6,0-17.3,0-27.6,0c0-81.8,0-162.8,0-245.8c8.6,0,16.4,0,24.1,0c81.6,0,163.3-2.4,244.9,0.7
	c89.5,3.5,165-29.8,234.6-80.3c65.6-47.6,111-111.5,136.5-188.1c43.7-130.4,44.1-262.2-6.4-390c-68.2-172.3-198.8-266.9-382.7-284.6
	c-200.1-19.3-360.3,75.1-440,259.8c-20,46.5-31.8,97-44.5,146.4c-6.8,26.3-9.4,54.2-10.3,81.4c-1.7,50.3-0.4,100.9-0.4,154.5
	c78.4,0,159.7,0,241,0c80.8,0,161.5,0,243.6,0c0,82.1,0,162.6,0,246c-81.6,0-163,0-244.3,0c-80.7,0-161.5,0-243.6,0
	c0,340.1,0,677.9,0,1017.4c-85.6,0-169.6,0-256.1,0c0-337.5,0-675.7,0-1017.4c-9.9,0-17.5,0-25,0c-113.4,0-227.1,4.4-340.3-0.9
	c-289.7-13.6-508-144.2-637.7-408c-36-73.3-53.6-153.6-59.9-235.5c-0.6-6.1-2.9-11.8-4.4-17.6c0-30.3,0-60.6,0-90.9
	c1.5-5.1,3.5-10.1,4.4-15.4C12.5,976.8,16,930.9,29,887.7c80.1-265.1,263.6-420.4,527.1-488c26.8-6.8,54-11.6,81-17.5
	C743,382.1,848.4,382.1,953.9,382.1z"/>
</svg>
