<?xml version="1.0" encoding="utf-8"?>
<!-- Generator: Adobe Illustrator 24.0.1, SVG Export Plug-In . SVG Version: 6.00 Build 0)  -->
<svg version="1.1" id="Layer_1" xmlns="http://www.w3.org/2000/svg" xmlns:xlink="http://www.w3.org/1999/xlink" x="0px" y="0px"
	 viewBox="0 0 2948.6 2331.4" style="enable-background:new 0 0 2948.6 2331.4;" xml:space="preserve">
<style type="text/css">
	.st0{fill:#B23A48;}
	.st1{fill:#8C2F39;}
</style>
<path class="st0" d="M1232,1297.7h269.1l239.8-398.5H991.5L744.3,489.6h1243L2227,91.1H391.6c-71.8,0-138.2,38.8-173.6,101.4
	s-34.3,139.3,2.9,200.7l1082.9,1794.8c36.1,59.8,100.9,96.2,170.7,96.2s134.6-36.6,170.5-96.2l62.3-103.2L1232,1297.7z"/>
<path class="st1" d="M2203.6,489.6h0.7l0,0h465.3l58.3-96.4c37-61.4,38.2-138.2,2.9-200.7S2629.2,91.1,2557.4,91.1h-114
	L2203.6,489.6z M2090,679.2l-506.4,841.1l232.1,385.2l739.9-1226.3L2090,679.2L2090,679.2z"/>
</svg>
