<?xml version="1.0" encoding="utf-8"?>
<!-- Generator: Adobe Illustrator 24.0.1, SVG Export Plug-In . SVG Version: 6.00 Build 0)  -->
<svg version="1.1" id="Layer_1" xmlns="http://www.w3.org/2000/svg" xmlns:xlink="http://www.w3.org/1999/xlink" x="0px" y="0px"
	 viewBox="0 0 1741.8 2331.4" style="enable-background:new 0 0 1741.8 2331.4;" xml:space="preserve">
<style type="text/css">
	.st0{fill:#9F3541;}
</style>
<path class="st0" d="M333.3,967.9c0-69.1,0.4-138.2-0.3-207.2c-0.1-15.7,3.7-22.2,20.8-24.5c90.7-12.1,181.2-26.1,271.9-38.4
	c10.2-1.4,22.8,1.5,31.8,6.7c64.9,37.8,129.5,76,193.1,115.7c16.9,10.6,28.5,9.3,44.6-0.6c63.1-39.1,127-77.2,191.2-114.7
	c9-5.3,21.5-8.8,31.7-7.4c90.7,12.3,181.2,26.3,271.9,38.5c16,2.1,22,6.5,22,23.4c-0.6,138.9-0.2,277.8-0.6,416.7
	c0,9.5-2.6,19.5-6.1,28.5c-25,63.4-47.1,128.3-77,189.4c-24.1,49.3-58,93.9-87.2,140.8c-6.3,10.2-12.3,21-16,32.2
	c-41.5,123.4-82.1,247.1-123.9,370.3c-4.6,13.8-13.3,27.3-23.3,37.9c-34,35.8-69,70.6-104.7,104.6c-7.3,6.9-19.5,11.8-29.5,12.1
	c-47.8,1.2-95.6,1.1-143.4,0c-9.4-0.2-20.9-4.8-27.6-11.3c-37.3-35.7-73.8-72.1-109.5-109.5c-9-9.4-15.4-22.4-19.6-34.9
	c-41.5-122.6-82.1-245.5-123.4-368.2c-4.1-12-9.3-24.3-17.1-34.1c-79.6-100.4-120.4-219.8-166-336.9c-3.1-8.2-3.5-17.8-3.5-26.7
	C333.2,1103.1,333.3,1035.5,333.3,967.9z M867.5,2020.7c3.4,0.3,6.8,0.6,10.2,0.9c4.4-7.1,8.1-14.8,13.3-21.2
	c16.4-20,34.8-34.9,63.9-30.2c5.7,1,15.8-7.5,19.6-14.1c39-66.4,61.4-139.6,84.2-212.5c1.7-5.3,1.5-11.8,0.4-17.4
	c-23.9-120.9-48-241.7-72.1-362.6c-6-30.1-12.1-60.1-18.7-93.3c-29.1,14.4-54.2,28.1-80.4,39.1c-8.9,3.7-22.1,3.9-31,0.1
	c-26.3-11-51.4-24.8-79.3-38.6c-2.7,9.4-5.2,16.3-6.7,23.3c-25.1,126-50.3,252.1-75.1,378.2c-4.5,22.8-15.4,48-9.8,68.4
	c20.5,75.1,44.6,149.5,85,216.9c3.8,6.3,14.2,13.3,20.6,12.6c25.7-3.2,43.8,7.2,58.5,26.5C856.3,2004.6,861.8,2012.7,867.5,2020.7z
	 M1336.2,905c-81.8,32.8-156.3,62.4-230.4,92.9c-6.2,2.6-12.3,11-14.2,17.8c-14.6,54.8-28.2,109.8-41.8,164.9
	c-1.1,4.4-0.7,12.6,1.7,13.9c31.7,16.7,63.8,32.4,101.7,51.3c0-20,0-33.3,0-46.6c0-38,8.4-46.7,46.7-48.1c6.8-0.2,13.8-0.8,20.5,0.1
	c14.9,2,23.5-4.6,31.3-16.9c21.1-33.3,41.9-67,65.8-98.2C1348.2,996.1,1330.5,952.7,1336.2,905z M415.8,908.1
	c-2.5,2.7-3.9,3.6-4.5,4.9c-0.9,2-1.6,4.2-1.7,6.4c-1.9,50.8-5.4,101.6,35,142.4c10.5,10.6,18,24.5,25.4,37.6
	c18.3,32.8,37.4,57.9,83.3,53.5c33.5-3.1,38.4,8.3,38.4,43c0,14.6,0,29.2,0,49.8c37.4-18.5,68.5-33.5,98.9-49.7
	c3.4-1.8,5.1-11.6,3.9-16.7c-12.8-53.7-25.7-107.4-40.4-160.6c-2.5-9.1-11.7-19.5-20.4-23.2c-48-20.6-96.8-39.4-145.3-58.8
	C464,927.1,439.5,917.5,415.8,908.1z"/>
<path class="st0" d="M1382,721.1c-37.2-5.2-74.5-10.3-111.7-15.6c-54.6-7.9-109.2-16.3-163.9-23.4c-7.1-0.9-15.8,3.9-22.6,7.9
	c-64.5,38.3-129.1,76.6-193,115.9c-13.6,8.3-23.5,8.1-36.9-0.2c-62-38.1-125.4-74-186.6-113.2c-20.8-13.3-40.2-9.2-60.5-6.4
	C528,697.3,449.5,709.1,371,720.5c-2.8,0.4-5.8-0.5-14.7-1.4c26.4-22.3,49.2-41.6,72.1-60.8c142.2-118.5,284.6-236.7,426.3-355.7
	c13.9-11.7,22-11.3,35.7,0.2c159.3,133.5,319.1,266.3,478.8,399.4c5.1,4.3,9.8,9,14.7,13.6C1383.2,717.6,1382.6,719.4,1382,721.1z"
	/>
<path class="st0" d="M1199.8,217.2c-6.6,6-10.8,9.9-13.6,12.4c63.8,63.4,126.9,126.2,192.1,191.1c105.9-119,214.6-241,323.2-363.1
	c1.5,0.7,2.9,1.4,4.3,2c-1.3,5-2,10.2-3.9,14.9c-43,105.9-86,211.8-129.6,317.5c-2.7,6.7-11.7,10.5-16.9,16.4
	c-4.7,5.5-9.3,11.5-12.2,18.1c-37.9,87.6-75.5,175.2-113.2,262.8c-3.9,8.9-8.1,17.8-14.2,31.1C1239,573.3,1064.2,427.7,886.9,280
	c33.9-17.1,64.2-32.5,94.6-47.7c48.1-24.1,96.4-47.6,144.1-72.4c14.1-7.3,22.9-6.2,32.4,6.8C1170.4,183.7,1184.8,199.3,1199.8,217.2
	z"/>
<path class="st0" d="M858.2,279.7c-177.7,148.1-352.1,293.4-529,440.7c-7.1-15.2-12.8-26.4-17.8-38c-36.2-84.1-72-168.5-108.9-252.3
	c-3.8-8.6-13.8-14.3-20.7-21.5c-2.6-2.6-5.3-5.5-6.7-8.8c-46-112.7-91.8-225.5-137.6-338.3c1.8-1.4,3.5-2.7,5.3-4.1
	c108.6,121.9,217.2,243.8,324.5,364.3c64.6-64.5,127.6-127.4,191.5-191c-15.5-7.9-11.1-17.6-0.5-30c42-49.6,41.7-49.8,100.2-20.6
	C723.5,212.5,788.5,244.9,858.2,279.7z"/>
<path class="st0" d="M181.8,459.4c4.6,7.5,8.2,12.2,10.7,17.4c39.2,80.3,78.5,160.5,116.8,241.2c4.4,9.2,5.8,22.4,2.9,32.1
	c-53,174.3-106.8,348.4-160.6,522.4c-1.9,6.2-4.8,12.1-9.2,23.2c-4.4-11.4-7.2-17.9-9.5-24.6C95.4,1159.4,57.7,1047.6,21,935.4
	c-3.5-10.6-4.5-24.3-0.9-34.5c50.3-140.3,101.6-280.3,152.7-420.3C175.1,474.3,178,468.3,181.8,459.4z"/>
<path class="st0" d="M1602.5,1296.7c-5.2-13.5-8.7-20.9-11-28.5c-52.7-171.2-105.4-342.5-157.5-513.9c-3.1-10-4.5-23.4-0.3-32.2
	c40.1-84.9,81.6-169.1,122.8-253.5c1-2,2.8-3.4,6.3-7.5c3.2,6.7,6.3,12,8.4,17.7c51.4,140.7,102.8,281.5,153.7,422.4
	c2.8,7.8,3.8,18.1,1.3,25.9c-39,118.6-78.7,236.9-118.3,355.2C1607,1284.9,1605.9,1287.6,1602.5,1296.7z"/>
<path class="st0" d="M519.6,225.9c-50.2,60.2-97.4,116.9-147.8,177.3C261.3,279,153,157.2,44.6,35.5c1.2-2,2.3-3.9,3.5-5.9
	C203.6,94.3,359,159,519.6,225.9z"/>
<path class="st0" d="M1700.6,34.9c-108.2,121.7-216.3,243.3-327.5,368.4c-50-59.9-97.6-117.1-147.8-177.3
	c159.8-66.6,315.5-131.5,471.2-196.4C1697.9,31.3,1699.2,33.2,1700.6,34.9z"/>
<path class="st0" d="M156.6,1340.7c13.4,3.3,20.5,4.6,27.4,6.8c70.3,23.4,140.8,46.4,210.7,70.8c11.1,3.9,22.3,12.9,29.2,22.5
	c25,35.1,48.1,71.4,73.6,109.7C426.2,1593.4,357,1635,283.7,1679C241.6,1566.9,200.2,1457,156.6,1340.7z"/>
<path class="st0" d="M1247.2,1550.7c28.2-42.2,54.5-81.9,81.4-121.1c3.1-4.5,9.5-7.5,15-9.3c75.2-25.4,150.6-50.4,225.9-75.4
	c4-1.3,8.5-1.2,17.9-2.5c-42.5,113.6-83.7,223.5-126.2,336.7C1389.2,1635.7,1319.9,1594.2,1247.2,1550.7z"/>
<path class="st0" d="M402.8,1403.8c-87.1-29.1-167-55.8-249.4-83.2c53.3-173.3,105.8-343.9,158.3-514.6c1.8,0.1,3.6,0.3,5.5,0.4
	c0.4,7.7,1,15.4,1,23c0,113.7-0.1,227.5,0.4,341.2c0,11.8,2.6,24.1,6.8,35.1c21.8,56.4,44.6,112.5,67,168.8
	C395.3,1382,397.7,1389.6,402.8,1403.8z"/>
<path class="st0" d="M1341.8,1402.3c12.1-30.9,19.9-57.1,32.2-81c44.3-86.5,59.7-177.3,53.5-274.2c-4.6-71.7-0.9-144-0.9-216.1
	c0-8.2,0-16.3,0-24.4c1.5-0.3,3-0.6,4.5-0.9c2.5,5.7,5.5,11.3,7.3,17.2c48.4,156.7,96.6,313.4,144.9,470.1
	c8.5,27.7,8.4,27.7-20,37.2c-63.8,21.3-127.6,42.6-191.4,63.7C1364.2,1396.6,1356.2,1398.4,1341.8,1402.3z"/>
<path class="st0" d="M852.1,2307.5c-38-22.8-70.5-45.4-105.5-62.6c-70.2-34.4-122.6-85.4-164.2-151.4
	c-38.4-60.9-83.1-117.7-125-176.3c-4.4-6.1-8.2-12.5-15.1-23c9.6,2.2,15,3,20,4.8c9.9,3.6,19.4,9,29.5,11.8
	c109.5,29.9,197.8,91.6,269.1,178.8c6.1,7.5,13.3,15,16.9,23.7c24.5,59.4,48.2,119.2,72.1,178.9
	C850.9,2295,850.8,2298.2,852.1,2307.5z"/>
<path class="st0" d="M892.3,2300.8c3.4-8.9,6.8-17.7,10.3-26.6c3.3-8.5,6.5-16.9,9.8-25.4c60.7-152.1,60.7-152.1,178.8-266.4
	c4.3-4.2,8.7-9.1,14-11.3c63.5-26.1,127.1-51.9,194.3-74.1c-3.5,5.9-6.5,12.2-10.5,17.7c-61.2,85.9-122.4,171.6-183.8,257.4
	c-3.9,5.5-7.8,11.9-13.3,15.3c-64.6,39.4-129.5,78.3-194.3,117.3C895.9,2303.4,894.1,2302.1,892.3,2300.8z"/>
<path class="st0" d="M294.4,1691c70.8-42.5,138.6-83.2,210-126.1c41.5,124.4,82.1,246,122.6,367.6c-1.6,1.4-3.1,2.8-4.7,4.2
	C514.2,1855.8,406.2,1774.9,294.4,1691z"/>
<path class="st0" d="M1117.7,1933.3c40.5-121.5,81-243.1,122.7-368.2c70.9,42.5,138.7,83.2,210,126
	c-111.6,83.7-219.7,164.7-327.9,245.8C1121,1935.6,1119.4,1934.4,1117.7,1933.3z"/>
<path class="st0" d="M629.3,144.5c24.5-4.7,44.7-8.9,65-12.3c55.1-9.4,110.1-20.5,165.6-26.7c24.8-2.7,50.9,3.9,76.3,7.8
	c55.3,8.6,110.4,18.1,165.5,27.5c3.3,0.5,6.3,2.9,12.2,5.7c-7.3,4.6-12,8-17.1,10.6c-69,34.7-137.9,69.6-207.4,103.4
	c-8.3,4.1-21.5,5.6-29.3,1.8c-73.6-35.6-146.5-72.6-219.7-109.2C637.9,151.8,635.9,149.6,629.3,144.5z"/>
<path class="st0" d="M792.9,2107.8c50.9,0,96.3,0,141.7,0.1c4.3,0,8.7,1.1,16.4,2.2c-25.5,63.6-50.2,125.5-74.9,187.3
	c-2.3,0.1-4.6,0.2-7,0.3C844.3,2235.9,819.5,2174.2,792.9,2107.8z"/>
<path class="st0" d="M338.1,1743.6c77.8,58.3,155.6,116.7,233.4,175c-0.9,1.7-1.7,3.5-2.6,5.2c-14.3-5.4-28.3-12.3-43-16
	c-77.3-19.5-135.2-63.9-174.2-133.4c-5.1-9.1-12.1-17.2-18.2-25.7C335.1,1746.9,336.6,1745.3,338.1,1743.6z"/>
<path class="st0" d="M1173.3,1918.6c77.8-58.4,155.6-116.7,233.4-175c1.5,1.2,3.1,2.5,4.6,3.7c-5.5,8.2-11.7,16-16.5,24.6
	c-39.6,70.9-98.4,116.6-177.4,136.6c-14.2,3.6-27.6,10.1-41.3,15.3C1175.1,1922,1174.2,1920.4,1173.3,1918.6z"/>
<path class="st0" d="M876.3,1373.6c40.6,162.2,81.1,324.4,122.4,489.2c-84.9,0-166.9,0-252.4,0c41-163.9,81.5-326.3,122.1-488.8
	C871,1374,873.7,1373.8,876.3,1373.6z"/>
<path class="st0" d="M753,1750c11.8-153.6,23.5-303.7,35.3-458c24.7,12.3,45.3,21.5,64.7,32.9c4.5,2.6,7.9,13.1,6.5,18.7
	c-33.1,133.5-66.9,266.9-100.6,400.3C758.6,1745.1,757,1745.9,753,1750z"/>
<path class="st0" d="M956.5,1291.6c12,155.2,23.6,305.1,35.1,454.8c-1.7,0.3-3.4,0.7-5.1,1c-10.8-41.9-21.7-83.6-32.2-125.6
	c-22.6-90.2-44.8-180.5-67.7-270.6c-3.9-15.4-3.1-25.5,13.9-32.1C918,1312.6,934.3,1302.8,956.5,1291.6z"/>
<path class="st0" d="M990.3,1450.9c11.2,55.2,22.4,110.3,33.5,165.5c6.1,30.4,10.8,61.1,18.6,91c11,42.2-14.5,74.5-23.2,111.3
	c-2.1-0.2-4.2-0.4-6.4-0.6c-9.4-122.2-18.9-244.3-28.3-366.5C986.5,1451.4,988.4,1451.1,990.3,1450.9z"/>
<path class="st0" d="M760.3,1451.7c-9.4,121.9-18.8,243.8-28.2,365.7c-16.2-29.4-37.4-59.4-32-92.3c15.3-91.5,35.7-182.1,54.1-273
	C756.3,1451.9,758.3,1451.8,760.3,1451.7z"/>
<path class="st0" d="M827,1945.6c-21.5-21.7-42-42.3-62.5-63c28,0,58.6,0,93.8,0C847.3,1904.8,836.9,1925.6,827,1945.6z"/>
<path class="st0" d="M885.9,1881.5c35.5,0,65.9,0,97.3,0c-22.5,21.6-43.7,41.9-65.8,63.1C908.1,1926,897.9,1905.5,885.9,1881.5z"/>
<path class="st0" d="M863.5,1914.6c0,25.8,0,47.2,0,69.3C830.9,1967.2,833.3,1960.4,863.5,1914.6z"/>
<path class="st0" d="M881.7,1984.2c0-22.5,0-44,0-68.1C914,1962.5,911.9,1967.8,881.7,1984.2z"/>
<path class="st0" d="M1303.9,938.7c-3.8,7.2-7.3,14.4-11.5,21.4c-32.7,54.5-65.3,109-98.2,163.3c-10.5,17.4-23.1,29.6-45.5,15.9
	c-3.5-2.1-11.3,1.1-16.3,3.5c-20.4,9.6-40.5,19.8-66.4,32.6c7.8-32.9,17.7-60,20.2-87.7c5.3-59.7,36.4-91.1,93.6-106
	c41.2-10.8,80-30.8,119.9-46.8C1301.1,936.1,1302.4,937.3,1303.9,938.7z"/>
<path class="st0" d="M1207.3,1132.3c35.8-59.7,71.2-118.8,106.6-177.8c5.7,23.4,11.6,45.1-3.5,66.5c-23,32.7-45,66.2-66.6,99.9
	C1235.3,1134.1,1225.7,1140.2,1207.3,1132.3z"/>
<path class="st0" d="M1136.8,1169.2c0,19.1,0,33.8,0,53c-20.7-10.3-38.6-19.2-62.5-31.1C1098,1182.8,1115.8,1176.5,1136.8,1169.2z"
	/>
<path class="st0" d="M444.8,934.7c42,16.7,82.9,37,126.1,49c52.7,14.6,81.4,43.3,86.2,98.9c2.5,28.8,13.5,56.8,22.6,92.9
	c-24.6-12.1-43.4-21.7-62.5-30.7c-8.8-4.1-16.1-11.4-28.3-1.6c-4.9,3.9-26.1-2.7-30.9-10.3c-40.4-63.7-78.7-128.7-117.7-193.3
	C441.8,938,443.3,936.4,444.8,934.7z"/>
<path class="st0" d="M531.4,1138.9c-9.6-5.3-22.4-8.2-28.2-16.3c-25.2-34.8-50.5-70-71.2-107.5c-9-16.3-7.1-38.6-10.2-58.2
	c2.8-1,5.6-2,8.5-3c35.6,59.2,71.2,118.3,106.8,177.5C535.2,1133.9,533.3,1136.4,531.4,1138.9z"/>
<path class="st0" d="M608.2,1221.9c0-20,0-34.8,0-52.4c20.4,6.9,38.6,13,62.6,21.1C647.2,1202.5,629.3,1211.4,608.2,1221.9z"/>
</svg>
