<?xml version="1.0" encoding="utf-8"?>
<!-- Generator: Adobe Illustrator 25.2.1, SVG Export Plug-In . SVG Version: 6.00 Build 0)  -->
<svg version="1.1" id="Layer_1" xmlns="http://www.w3.org/2000/svg" xmlns:xlink="http://www.w3.org/1999/xlink" x="0px" y="0px"
	 viewBox="0 0 384.9 118" style="enable-background:new 0 0 384.9 118;" xml:space="preserve">
<style type="text/css">
	.st0{fill:#FFFFFF;}
	.st1{fill:url(#Trazado_5_1_);}
	.st2{fill:url(#Trazado_6_1_);}
</style>
<g id="Grupo_11951" transform="translate(16 170)">
	<g id="Grupo_8" transform="translate(125.136 -168.139)">
		<g id="Grupo_7">
			<g id="Grupo_5" transform="translate(0 59.108)">
				<path id="Trazado_1" class="st0" d="M220,22.1l-3.3-1c-2.2-0.7-5.7-1.8-5.7-4.7c0-2.8,3.2-3.6,5.5-3.6h7.1l6-11.2h-90.8
					c-4,0-7.3,3.2-7.3,7.3c0,0,0,0,0,0v10.3C128.3,7.7,116.8,0,104.5,0C93.7,0,83.5,5.9,79,15.1C77.7,5.8,70.6,1.7,60.8,1.7h-6H19
					C9.1,1.7,2,8.1,2,18.2c0,9.6,5.3,11.7,13.4,14c2.8,0.8,7.8,2,7.8,5.6c0,3.5-3.2,5-6.2,5c-4.4,0-8.2-2.3-11.4-5.1L0,48
					c5.1,3.6,11.2,5.6,17.4,5.6c5,0,10.2-1.4,14-4.7c3.9-3.3,5.1-8.4,5.1-13.3c0-8-5.3-11.5-12.2-13.5l-3.3-1
					c-2.2-0.7-5.7-1.8-5.7-4.7c0-2.8,3.1-4.2,5.5-4.2h19.8v40.1h13.2V35.5h7.5c7.2,0,12.4-2.1,15.3-6.5c1.3,14.8,12.6,25,27.9,25
					c13.6,0,24-8.1,27.1-20.2v18.6h13.2V32.9h0.1l14.6,19.5h14.2l-15.9-20.8c7.2-1.3,11.1-7.3,11.1-14.3c0-1.5-0.2-3-0.5-4.4h8.8
					v39.5h13.2V12.8h8c-0.5,1.7-0.7,3.5-0.7,5.3c0,9.6,5.3,11.7,13.4,14c2.8,0.8,7.8,2,7.8,5.7c0,3.5-3.2,5-6.2,5
					c-4.4,0-8.2-2.3-11.4-5.1L195.7,48c5.1,3.6,11.2,5.6,17.4,5.7c5,0,10.2-1.4,14.1-4.7c3.9-3.4,5.1-8.4,5.1-13.3
					C232.3,27.6,226.9,24.2,220,22.1z M56,24.9h-2.2V12.3H56c5.1,0,9.5,0.1,9.5,6.4C65.5,24.9,60.8,24.9,56,24.9L56,24.9z
					 M104.5,41.3c-7.9,0-14.3-6.4-14.3-15.1c0-7,6.5-13.4,14.3-13.4s14.3,6.4,14.3,13.4C118.8,34.9,112.3,41.3,104.5,41.3
					L104.5,41.3z M146,24.4h-1.3V11.8h1.3c4.3,0,9.1,0.8,9.1,6.3S150.3,24.4,146,24.4L146,24.4z"/>
				<g id="Grupo_4" transform="translate(232.948 46.135)">
					<path id="Trazado_2" class="st0" d="M0,1h1.4v5.1h1.3V1h1.4V0H0L0,1z"/>
					<path id="Trazado_3" class="st0" d="M7.8,4.2L7.8,4.2L6.8,0H4.7v6.1H6V1.4h0l1.1,4.7h1.2l1.2-4.7h0v4.7h1.3V0h-2L7.8,4.2z"/>
				</g>
			</g>
			<g id="Grupo_6">
				<path id="Trazado_4" class="st0" d="M79.2,0v25.2h-0.5L64.9,3.7C63.2,1,61.5,0,58.1,0H0v9.9h15.9v40.3h13.8V9.9h15.5v40.3h13.2
					v-30h0.3l17.6,26.3c1.8,2.8,3.4,3.7,6.7,3.7h9.1V9.9h15.5v40.3h13.6V9.9h12.1l5.2-9.9L79.2,0z"/>
			</g>
		</g>
	</g>
	<g id="Grupo_9" transform="translate(-16 -170)">
		
			<linearGradient id="Trazado_5_1_" gradientUnits="userSpaceOnUse" x1="-760.223" y1="592.8013" x2="-759.223" y2="592.8013" gradientTransform="matrix(113.177 0 0 -71.6558 86042.1953 42513.4688)">
			<stop  offset="5.000000e-03" style="stop-color:#FF0085"/>
			<stop  offset="1" style="stop-color:#CC1F47"/>
		</linearGradient>
		<path id="Trazado_5" class="st1" d="M51.7,44.9l18.9,26.7V42.2h45C106.3,11,73.5-6.8,42.2,2.4C23.1,8.1,8.1,23.1,2.4,42.2h44.1
			C48.6,42.2,50.5,43.2,51.7,44.9z"/>
		
			<linearGradient id="Trazado_6_1_" gradientUnits="userSpaceOnUse" x1="-760.5027" y1="592.2025" x2="-759.5027" y2="592.2025" gradientTransform="matrix(118.0495 0 0 -65.7753 89776.9609 39037.5156)">
			<stop  offset="5.000000e-03" style="stop-color:#FF0085"/>
			<stop  offset="1" style="stop-color:#CC1F47"/>
		</linearGradient>
		<path id="Trazado_6" class="st2" d="M81.4,52.3v40.4h-6.3c-2.2,0-4.2-1-5.4-2.8L43.2,52.3H0.4c-3.7,32.4,19.5,61.7,51.9,65.4
			s61.7-19.5,65.4-51.9c0.5-4.5,0.5-9,0-13.5H81.4z"/>
	</g>
</g>
</svg>
