<?xml version="1.0" encoding="utf-8"?>
<!-- Generator: Adobe Illustrator 24.0.1, SVG Export Plug-In . SVG Version: 6.00 Build 0)  -->
<svg version="1.1" xmlns="http://www.w3.org/2000/svg" xmlns:xlink="http://www.w3.org/1999/xlink" x="0px" y="0px"
	 viewBox="0 0 3710 3710" style="enable-background:new 0 0 3710 3710;" xml:space="preserve">
<style type="text/css">
	.st0{opacity:1;fill:#142638;}
	.st1{fill:#FCB9B2;}
	.st2{fill:#FFFFFF;}
	.st3{fill:#461220;}
	.st4{fill:url(#SVGID_1_);}
	.st5{opacity:0.65;fill:#FFFFFF;}
	.st6{opacity:0.43;fill:#FFFFFF;}
	.st7{opacity:0.72;}
	.st8{fill:#F4F7FA;}
	.st9{opacity:0.47;fill:#FFFFFF;}
	.st10{opacity:0.53;}
	.st11{fill:url(#SVGID_2_);}
	.st12{fill:url(#SVGID_3_);}
	.st13{fill:url(#SVGID_4_);}
	.st14{fill:url(#SVGID_5_);}
	.st15{fill:url(#SVGID_6_);}
	.st16{fill:#5D0001;}
	.st17{filter:url(#Adobe_OpacityMaskFilter);}
	.st18{filter:url(#Adobe_OpacityMaskFilter_1_);}
	.st19{mask:url(#SVGID_7_);fill:url(#SVGID_8_);}
	.st20{opacity:0.32;fill:#9E0002;}
	.st21{fill:url(#SVGID_9_);}
	.st22{fill:url(#SVGID_10_);}
	.st23{fill:url(#SVGID_11_);}
	.st24{fill:url(#SVGID_12_);}
	.st25{fill:url(#SVGID_13_);}
	.st26{fill:url(#SVGID_14_);}
	.st27{fill:url(#SVGID_15_);}
	.st28{fill:url(#SVGID_16_);}
	.st29{fill:url(#SVGID_17_);}
	.st30{fill:url(#SVGID_18_);}
	.st31{fill:url(#SVGID_19_);}
	.st32{fill:url(#SVGID_20_);}
	.st33{fill:url(#SVGID_21_);}
	.st34{fill:url(#SVGID_22_);}
	.st35{fill:url(#SVGID_23_);}
	.st36{opacity:0.3;}
	.st37{fill:#820004;}
	.st38{fill:url(#SVGID_24_);}
	.st39{opacity:0.56;fill:#FFFFFF;}
	.st40{fill:url(#SVGID_25_);}
</style>
<g id="Background">
</g>
<g id="Illustration">
	<g>
		<path class="st0" d="M3158.16,2352.4c-223.77,681.14-1071.39,938.55-1654.65,890.28c-159.25-13.18-479.68-39.7-729.86-276.3
			c-480.47-454.37-406.47-1404.11,53.47-1963.27c59.23-72.01,469.22-554.46,1108.13-548c369.74,3.74,739.08,91.18,1011.92,358.92
			c140.38,137.76,230.1,321.74,274.6,513.32C3298.73,1658.69,3263.76,2030.97,3158.16,2352.4z"/>
		<g>
			<path class="st1" d="M477.1,538.49c-2.61-11.13,13.04-18.53,22.63-10.75c97.37,78.95,331.31,315.39,273.01,728.57
				c-73.15,518.4,51.91,707.56,207.58,822.95c0,0-213.78-54.26-348.28-246.2C301.79,1361.78,523.59,736.4,477.1,538.49z"/>
			<path class="st2" d="M551.2,700.4c12.18,57.71,23.04,115.6,31.43,173.75c8.74,58.1,15.44,116.4,20.02,174.8
				c4.32,58.41,7.38,116.88,7.55,175.37c0.48,58.49-1.95,116.93-4.63,175.61c-2.3,58.65-5,117.72-0.71,177.21
				c4.22,59.37,16.72,119.26,41.52,175.4c6.2,13.99,12.72,27.94,20.12,41.42c7.12,13.6,14.94,26.94,23.03,40.14
				c16.34,26.35,34.73,51.81,55.23,75.98c41.14,48.25,90.76,91.05,145.43,127.27c5.75,3.81,14,2.88,18.41-2.09
				c4.34-4.88,3.37-11.83-2.12-15.69l-0.04-0.03c-13.01-9.14-25.88-18.39-38.22-28.1c-6.27-4.77-12.27-9.78-18.38-14.68
				c-5.89-5.1-12.01-10-17.71-15.25c-23.21-20.66-44.72-42.7-64.22-66.01c-39.24-46.4-70.66-98.09-94.46-151.69
				c-11.55-26.92-20.79-54.53-27.53-82.66c-6.72-28.14-10.94-56.76-13.28-85.62c-4.68-57.74-2.57-116.23-0.76-174.89
				c1.72-58.68,2.99-117.65,1.44-176.57c-0.68-29.46-1.98-58.91-3.88-88.32c-0.85-14.71-2.04-29.4-3.19-44.1
				c-1.32-14.68-2.73-29.36-4.28-44.02c-6.32-58.64-14.71-117.09-25.23-175.22c-10.84-58.09-23.46-115.92-38.64-173.22
				c-0.43-1.64-2.32-2.66-4.22-2.29C552.03,697.26,550.86,698.81,551.2,700.4z"/>
		</g>
		<g>
			<g>
				<path class="st1" d="M719.14,1779.32c-11.94,12.67-32.93,9.02-40.11-6.83c-39.63-87.48-129.3-344.97,18.8-641.6
					c125.06-250.49,169.07-398.21,184.4-466.65c3.24-14.47,23.08-16.39,29.06-2.82C977.33,811.13,1151.73,1320.35,719.14,1779.32z"
					/>
				<path class="st2" d="M697.45,1770.09c-0.42,0.08-0.86,0.11-1.31,0.1c-3.75-0.06-6.75-3.15-6.69-6.9
					c0.07-4.25,8.34-429.49,166.5-785.64c1.52-3.43,5.54-4.97,8.97-3.45c3.43,1.52,4.98,5.54,3.45,8.97
					c-157.01,353.56-165.27,776.1-165.34,780.33C702.99,1766.81,700.59,1769.53,697.45,1770.09z"/>
			</g>
		</g>
		<g>
			<g>
				<polygon class="st3" points="1571.81,2539.67 1514.73,3051.64 2177.01,3051.64 2090.75,2539.67 				"/>
				<path class="st3" d="M2319.67,3156.38h-969.29c-26.33,0-46.11-18.75-41.02-38.88l12.44-49.19
					c3.74-14.79,20.01-25.65,39.34-26.26l934.44-29.16c20.19-0.63,38.07,10.09,42.47,25.46l22.42,78.35
					C2366.29,3137.06,2346.43,3156.38,2319.67,3156.38z"/>
				<path class="st3" d="M585.28,1231.1v1313.56c0,108.06,86.11,196.42,194.13,199.21c479.77,12.37,1715.49,42.37,2172.21,35.64
					c78.5-1.16,142.09-63.97,144.35-142.45c8.81-305.16,23.11-1038.96-29.82-1379.63c-11.15-71.74-71.7-125.39-144.27-127.71
					c-401.99-12.86-1738.5-53.69-2195-43.44C648.15,1088.04,585.28,1152.35,585.28,1231.1z"/>
				<linearGradient id="SVGID_1_" gradientUnits="userSpaceOnUse" x1="1584.8116" y1="1399.2271" x2="2528.429" y2="3189.5471">
					<stop  offset="0" style="stop-color:#9F3541"/>
					<stop  offset="1" style="stop-color:#461220"/>
				</linearGradient>
				<path class="st4" d="M667.7,1224.71v1247.97c0,63.09,50.64,114.5,113.73,115.44l2104.48,31.46
					c62.54,0.93,113.81-49.38,114.04-111.93l4.26-1236.82c0.17-44.72-35.46-81.37-80.18-82.46L758.9,1135.7
					C708.9,1134.48,667.7,1174.69,667.7,1224.71z"/>
				<path class="st5" d="M3019.13,2670.66c-0.02,0-0.05,0-0.07,0l-2351.42-47.6c-1.91-0.04-3.43-1.62-3.39-3.53
					c0.04-1.91,1.7-3.5,3.53-3.39l2351.42,47.6c1.91,0.04,3.43,1.62,3.39,3.53C3022.55,2669.15,3021,2670.66,3019.13,2670.66z"/>
				<path class="st2" d="M1872.16,3055.68c-1.89,0-3.43-1.52-3.46-3.41c-0.03-1.91,1.5-3.48,3.41-3.51l40.04-0.58
					c0.02,0,0.03,0,0.05,0c1.89,0,3.43,1.52,3.46,3.41c0.03,1.91-1.5,3.48-3.41,3.51l-40.04,0.58
					C1872.2,3055.68,1872.18,3055.68,1872.16,3055.68z"/>
				<path class="st2" d="M1345.24,3129.57c-0.18,0-0.36-0.01-0.55-0.04c-1.89-0.3-3.17-2.08-2.87-3.96l5.71-35.78
					c3.09-19.37,19.57-33.64,39.19-33.93l424.7-6.21c1.9-0.03,3.48,1.5,3.51,3.41c0.03,1.91-1.5,3.48-3.41,3.51l-424.7,6.21
					c-16.24,0.24-29.89,12.05-32.45,28.09l-5.71,35.78C1348.38,3128.35,1346.91,3129.57,1345.24,3129.57z"/>
			</g>
			<g>
				<path class="st6" d="M823.08,2472.84l475.31,7.37c27.01,0.42,49.32-20.99,50.01-47.99l5.61-219.75
					c0.71-27.66-21.51-50.48-49.18-50.51l-475.49-0.61c-26.74-0.03-48.62,21.27-49.3,48l-5.44,212.98
					C773.91,2449.72,795.69,2472.41,823.08,2472.84z"/>
				<g class="st7">
					<polygon class="st8" points="2323.38,1993.43 2410.57,1994.46 2426.84,1357.23 2339.74,1352.77 					"/>
					<polygon class="st8" points="2166.04,1991.59 2254.92,1992.63 2263.13,1670.95 2174.3,1668.16 					"/>
					<polygon class="st8" points="2005.62,1989.7 2096.24,1990.77 2114.4,1279.61 2023.88,1274.63 					"/>
					<polygon class="st8" points="1842.03,1987.78 1934.45,1988.87 1950.06,1377.25 1857.74,1372.77 					"/>
					<polygon class="st8" points="1675.19,1985.83 1769.45,1986.93 1773.68,1821.31 1679.44,1819.28 					"/>
					<polygon class="st8" points="1504.98,1983.83 1601.14,1984.96 1611.18,1591.77 1515.07,1588.42 					"/>
					<polygon class="st8" points="1331.31,1981.79 1429.43,1982.94 1444.04,1410.54 1346.01,1406.11 					"/>
					<polygon class="st8" points="1154.06,1979.71 1254.21,1980.89 1264.98,1559.19 1164.9,1555.57 					"/>
					<polygon class="st8" points="973.14,1977.59 1075.37,1978.79 1092.25,1317.91 990.12,1312.85 					"/>
					<polygon class="st8" points="788.42,1975.42 892.8,1976.65 911.75,1234.41 807.49,1228.8 					"/>
				</g>
				<path class="st9" d="M2515.72,1869.48l385.34,7.55c11.95,0.23,21.84-9.22,22.15-21.17l0,0c0.31-12.02-9.21-22.01-21.24-22.28
					l-385.31-8.62c-11.97-0.27-21.9,9.2-22.21,21.17l-0.03,1.07C2494.11,1859.25,2503.67,1869.25,2515.72,1869.48z"/>
				<path class="st9" d="M2517.56,1793.28l385.29,9.38c11.99,0.29,21.95-9.18,22.25-21.17l0,0c0.31-11.98-9.15-21.95-21.13-22.28
					l-385.26-10.45c-12.01-0.33-22.01,9.16-22.31,21.17l-0.03,1.07C2496.06,1783.01,2505.55,1792.98,2517.56,1793.28z"/>
				<path class="st9" d="M2515.64,2463.1l385.29,9.38c11.99,0.29,21.95-9.18,22.25-21.17v0c0.31-11.98-9.15-21.95-21.13-22.28
					l-385.26-10.45c-12.01-0.33-22.01,9.16-22.31,21.17l-0.03,1.07C2494.14,2452.83,2503.63,2462.8,2515.64,2463.1z"/>
				<path class="st9" d="M2497.4,2330.2c-0.57,19.24,14.87,35.15,34.12,35.14l360.04-0.03c17.08,0.76,31.46-12.64,31.9-29.73
					l9.29-363.69c0.43-16.85-12.87-30.87-29.72-31.31l-363.29-9.61c-16.87-0.45-30.91,12.88-31.34,29.75L2497.4,2330.2z"/>
				<g class="st10">
					<path class="st2" d="M935.72,2286.77c36.41,2.3,42.36-18.66,78.29-19.79c60.94-1.91,74.34,57.7,133,58.29
						c47.89,0.48,60.95-39.2,108.23-33.55c35.14,4.19,41.48,27.82,75.73,32.07c6.84,0.85,13.59,0.76,20.2-0.04l-2.65,103.67
						c-0.76,29.66-25.26,53.17-54.92,52.71l-464.46-7.21c-30.73-0.48-55.16-25.94-54.38-56.66l4.86-190.18
						c30.69,3,52.96,10.53,68.86,17.99C886.72,2262.02,898.99,2284.45,935.72,2286.77z"/>
				</g>
				<path class="st9" d="M2559.26,1700.94h309.84c32.3,0,58.72-25.75,59.54-58.04l6.31-247.3c0.85-33.48-26.05-61.08-59.54-61.08
					h-309.84c-32.3,0-58.72,25.75-59.54,58.04l-6.31,247.3C2498.86,1673.34,2525.77,1700.94,2559.26,1700.94z"/>
				<path class="st6" d="M819.38,2127.33l1554.35,4.97c18.52,0.06,33.69-14.68,34.16-33.2l0,0c0.49-19.05-14.75-34.79-33.8-34.93
					l-1554.19-11.51c-18.57-0.14-33.83,14.63-34.31,33.19l-0.17,6.53C784.95,2111.5,800.27,2127.27,819.38,2127.33z"/>
				<path class="st6" d="M1466.79,2463.12l881.1,26.16c27.58,0.82,50.58-20.94,51.28-48.53l5.84-228.6
					c0.71-27.92-21.66-50.97-49.59-51.09l-881.67-3.7c-27.1-0.11-49.32,21.46-50.01,48.55l-5.26,206.14
					C1417.77,2439.48,1439.37,2462.31,1466.79,2463.12z"/>
			</g>
		</g>
		<g>
			<linearGradient id="SVGID_2_" gradientUnits="userSpaceOnUse" x1="2637.8188" y1="3876.1921" x2="2621.6543" y2="2383.668">
				<stop  offset="0" style="stop-color:#B23A48"/>
				<stop  offset="1" style="stop-color:#461220"/>
			</linearGradient>
			<path class="st11" d="M2005.16,2712.46l13.13,408.45c2.29,71.22,60.74,127.9,132.33,128.32l978.1,5.76
				c47.85,0.28,88.61-34.49,95.6-81.6c15.29-103.15,34.78-287.71,12.84-460.93H2005.16z"/>
			<path class="st2" d="M3094.08,3229.9C3094.08,3229.9,3094.07,3229.9,3094.08,3229.9l-7.13-0.04c-0.66,0-1.18-0.54-1.18-1.19
				c0-0.65,0.53-1.18,1.19-1.18c0,0,0,0,0.01,0l7.12,0.04c0.66,0,1.18,0.54,1.18,1.19
				C3095.26,3229.38,3094.73,3229.9,3094.08,3229.9z M3110.69,3229.79c-0.62,0-1.14-0.48-1.18-1.11c-0.04-0.65,0.46-1.22,1.11-1.26
				c2.33-0.14,4.68-0.38,6.99-0.7c0.64-0.1,1.25,0.36,1.34,1.01c0.09,0.65-0.36,1.25-1.01,1.34c-2.37,0.33-4.79,0.57-7.18,0.72
				C3110.74,3229.79,3110.72,3229.79,3110.69,3229.79z M3070.33,3229.77C3070.33,3229.77,3070.32,3229.77,3070.33,3229.77
				l-7.13-0.04c-0.66,0-1.18-0.54-1.18-1.19c0-0.65,0.53-1.18,1.19-1.18c0,0,0,0,0.01,0l7.12,0.04c0.66,0,1.18,0.54,1.18,1.19
				C3071.51,3229.24,3070.98,3229.77,3070.33,3229.77z M3046.58,3229.63C3046.58,3229.63,3046.57,3229.63,3046.58,3229.63
				l-7.13-0.04c-0.66,0-1.18-0.54-1.18-1.19c0-0.65,0.53-1.18,1.19-1.18c0,0,0,0,0.01,0l7.12,0.04c0.66,0,1.18,0.54,1.18,1.19
				C3047.76,3229.1,3047.23,3229.63,3046.58,3229.63z M3022.83,3229.48C3022.83,3229.48,3022.83,3229.48,3022.83,3229.48l-7.13-0.04
				c-0.66,0-1.18-0.54-1.18-1.19c0-0.66,0.64-1.15,1.19-1.18l7.12,0.04c0.66,0,1.18,0.54,1.18,1.19
				C3024.01,3228.96,3023.48,3229.48,3022.83,3229.48z M2999.08,3229.35C2999.08,3229.35,2999.08,3229.35,2999.08,3229.35
				l-7.13-0.04c-0.66,0-1.18-0.54-1.18-1.19c0-0.65,0.53-1.18,1.19-1.18c0,0,0,0,0.01,0l7.12,0.04c0.66,0,1.18,0.54,1.18,1.19
				C3000.27,3228.82,2999.74,3229.35,2999.08,3229.35z M2975.33,3229.21C2975.33,3229.21,2975.33,3229.21,2975.33,3229.21
				l-7.13-0.04c-0.66,0-1.18-0.54-1.18-1.19c0-0.66,0.63-1.2,1.19-1.18l7.12,0.04c0.66,0,1.18,0.54,1.18,1.19
				C2976.52,3228.68,2975.99,3229.21,2975.33,3229.21z M2951.58,3229.06C2951.58,3229.06,2951.58,3229.06,2951.58,3229.06
				l-7.13-0.04c-0.66,0-1.18-0.54-1.18-1.19c0-0.65,0.53-1.18,1.19-1.18c0,0,0,0,0,0l7.13,0.04c0.66,0,1.18,0.54,1.18,1.19
				C2952.77,3228.54,2952.24,3229.06,2951.58,3229.06z M2927.84,3228.92C2927.83,3228.92,2927.83,3228.92,2927.84,3228.92
				l-7.13-0.04c-0.66,0-1.18-0.54-1.18-1.19c0-0.65,0.53-1.18,1.19-1.18c0,0,0,0,0.01,0l7.12,0.04c0.66,0,1.18,0.54,1.18,1.19
				C2929.02,3228.4,2928.49,3228.92,2927.84,3228.92z M2904.09,3228.79C2904.09,3228.79,2904.08,3228.79,2904.09,3228.79l-7.13-0.04
				c-0.66,0-1.18-0.54-1.18-1.19c0-0.65,0.53-1.18,1.19-1.18c0,0,0,0,0.01,0l7.12,0.04c0.66,0,1.18,0.54,1.18,1.19
				C2905.27,3228.26,2904.74,3228.79,2904.09,3228.79z M2880.34,3228.65C2880.34,3228.65,2880.34,3228.65,2880.34,3228.65
				l-7.13-0.04c-0.66,0-1.18-0.54-1.18-1.19c0-0.65,0.53-1.18,1.19-1.18c0,0,0,0,0,0l7.13,0.04c0.66,0,1.18,0.54,1.18,1.19
				C2881.52,3228.12,2880.99,3228.65,2880.34,3228.65z M2856.59,3228.5C2856.59,3228.5,2856.59,3228.5,2856.59,3228.5l-7.13-0.04
				c-0.66,0-1.18-0.54-1.18-1.19c0-0.65,0.53-1.18,1.19-1.18c0,0,0,0,0.01,0l7.12,0.04c0.66,0,1.18,0.54,1.18,1.19
				C2857.78,3227.98,2857.24,3228.5,2856.59,3228.5z M2832.84,3228.37C2832.84,3228.37,2832.84,3228.37,2832.84,3228.37l-7.13-0.04
				c-0.66,0-1.18-0.54-1.18-1.19c0-0.65,0.53-1.18,1.19-1.18c0,0,0,0,0,0l7.13,0.04c0.66,0,1.18,0.54,1.18,1.19
				C2834.03,3227.84,2833.5,3228.37,2832.84,3228.37z M2809.09,3228.23C2809.09,3228.23,2809.09,3228.23,2809.09,3228.23l-7.13-0.04
				c-0.66,0-1.18-0.54-1.18-1.19c0-0.65,0.53-1.18,1.19-1.18c0,0,0,0,0,0l7.13,0.04c0.66,0,1.18,0.54,1.18,1.19
				C2810.28,3227.7,2809.75,3228.23,2809.09,3228.23z M2785.35,3228.09C2785.34,3228.09,2785.34,3228.09,2785.35,3228.09l-7.13-0.04
				c-0.66,0-1.18-0.54-1.18-1.19c0-0.65,0.53-1.18,1.19-1.18c0,0,0,0,0.01,0l7.12,0.04c0.66,0,1.18,0.54,1.18,1.19
				C2786.53,3227.56,2786,3228.09,2785.35,3228.09z M2761.6,3227.95C2761.6,3227.95,2761.59,3227.95,2761.6,3227.95l-7.13-0.04
				c-0.66,0-1.18-0.54-1.18-1.19c0-0.65,0.53-1.18,1.19-1.18c0,0,0,0,0,0l7.13,0.04c0.66,0,1.18,0.54,1.18,1.19
				C2762.78,3227.42,2762.25,3227.95,2761.6,3227.95z M2737.85,3227.81C2737.85,3227.81,2737.84,3227.81,2737.85,3227.81l-7.13-0.04
				c-0.66,0-1.18-0.54-1.18-1.19c0-0.65,0.61-1.11,1.19-1.18l7.12,0.04c0.66,0,1.18,0.54,1.18,1.19
				C2739.03,3227.28,2738.5,3227.81,2737.85,3227.81z M2714.1,3227.67C2714.1,3227.67,2714.1,3227.67,2714.1,3227.67l-7.13-0.04
				c-0.66,0-1.18-0.54-1.18-1.19c0-0.65,0.53-1.18,1.19-1.18h0l7.13,0.04c0.66,0,1.18,0.54,1.18,1.19
				C2715.28,3227.14,2714.75,3227.67,2714.1,3227.67z M2690.35,3227.53C2690.35,3227.53,2690.35,3227.53,2690.35,3227.53l-7.13-0.04
				c-0.66,0-1.18-0.54-1.18-1.19c0-0.66,0.61-1.16,1.19-1.18l7.12,0.04c0.66,0,1.18,0.54,1.18,1.19
				C2691.54,3227,2691.01,3227.53,2690.35,3227.53z M2666.6,3227.39C2666.6,3227.39,2666.6,3227.39,2666.6,3227.39l-7.13-0.04
				c-0.66,0-1.18-0.54-1.18-1.19c0-0.65,0.53-1.18,1.19-1.18c0,0,0,0,0,0l7.13,0.04c0.66,0,1.18,0.54,1.18,1.19
				C2667.79,3226.86,2667.26,3227.39,2666.6,3227.39z M2642.85,3227.25C2642.85,3227.25,2642.85,3227.25,2642.85,3227.25l-7.13-0.04
				c-0.66,0-1.18-0.54-1.18-1.19c0-0.66,0.61-1.2,1.19-1.18l7.12,0.04c0.66,0,1.18,0.54,1.18,1.19
				C2644.04,3226.72,2643.51,3227.25,2642.85,3227.25z M2619.11,3227.11C2619.1,3227.11,2619.1,3227.11,2619.11,3227.11l-7.13-0.04
				c-0.66,0-1.18-0.54-1.18-1.19c0-0.65,0.53-1.18,1.19-1.18c0,0,0,0,0,0l7.13,0.04c0.66,0,1.18,0.54,1.18,1.19
				C2620.29,3226.58,2619.76,3227.11,2619.11,3227.11z M2595.36,3226.97C2595.36,3226.97,2595.35,3226.97,2595.36,3226.97
				l-7.13-0.04c-0.66,0-1.18-0.54-1.18-1.19c0-0.65,0.53-1.18,1.19-1.18c0,0,0,0,0,0l7.13,0.04c0.66,0,1.18,0.54,1.18,1.19
				C2596.54,3226.44,2596.01,3226.97,2595.36,3226.97z M2571.61,3226.83C2571.61,3226.83,2571.6,3226.83,2571.61,3226.83l-7.13-0.04
				c-0.66,0-1.18-0.54-1.18-1.19c0-0.65,0.53-1.18,1.19-1.18c0,0,0,0,0.01,0l7.12,0.04c0.66,0,1.18,0.54,1.18,1.19
				C2572.79,3226.3,2572.26,3226.83,2571.61,3226.83z M2547.86,3226.69C2547.86,3226.69,2547.86,3226.69,2547.86,3226.69l-7.13-0.04
				c-0.66,0-1.18-0.54-1.18-1.19c0-0.65,0.53-1.18,1.19-1.18c0,0,0,0,0,0l7.13,0.04c0.66,0,1.18,0.54,1.18,1.19
				C2549.05,3226.16,2548.51,3226.69,2547.86,3226.69z M2524.11,3226.55C2524.11,3226.55,2524.11,3226.55,2524.11,3226.55
				l-7.13-0.04c-0.66,0-1.18-0.54-1.18-1.19c0-0.65,0.53-1.18,1.19-1.18c0,0,0,0,0,0l7.13,0.04c0.66,0,1.18,0.54,1.18,1.19
				C2525.3,3226.02,2524.77,3226.55,2524.11,3226.55z M2500.36,3226.41C2500.36,3226.41,2500.36,3226.41,2500.36,3226.41l-7.13-0.04
				c-0.66,0-1.18-0.54-1.18-1.19c0-0.65,0.53-1.18,1.19-1.18c0,0,0,0,0.01,0l7.12,0.04c0.66,0,1.18,0.54,1.18,1.19
				C2501.55,3225.88,2501.02,3226.41,2500.36,3226.41z M2476.62,3226.27C2476.61,3226.27,2476.61,3226.27,2476.62,3226.27
				l-7.13-0.04c-0.66,0-1.18-0.54-1.18-1.19c0-0.65,0.53-1.18,1.19-1.18h0.01l7.12,0.04c0.66,0,1.18,0.54,1.18,1.19
				C2477.8,3225.74,2477.27,3226.27,2476.62,3226.27z M2452.87,3226.13C2452.86,3226.13,2452.86,3226.13,2452.87,3226.13l-7.13-0.04
				c-0.66,0-1.18-0.54-1.18-1.19c0-0.65,0.53-1.18,1.19-1.18c0,0,0,0,0.01,0l7.12,0.04c0.66,0,1.18,0.54,1.18,1.19
				C2454.05,3225.6,2453.52,3226.13,2452.87,3226.13z M2429.12,3225.99C2429.12,3225.99,2429.11,3225.99,2429.12,3225.99l-7.13-0.04
				c-0.66,0-1.18-0.54-1.18-1.19c0-0.65,0.53-1.18,1.19-1.18c0,0,0,0,0.01,0l7.12,0.04c0.66,0,1.18,0.54,1.18,1.19
				C2430.3,3225.46,2429.77,3225.99,2429.12,3225.99z M2405.37,3225.85C2405.37,3225.85,2405.37,3225.85,2405.37,3225.85l-7.13-0.04
				c-0.66,0-1.18-0.54-1.18-1.19c0-0.65,0.59-1.11,1.19-1.18l7.12,0.04c0.66,0,1.18,0.54,1.18,1.19
				C2406.55,3225.32,2406.02,3225.85,2405.37,3225.85z M2381.62,3225.71C2381.62,3225.71,2381.62,3225.71,2381.62,3225.71
				l-7.13-0.04c-0.66,0-1.18-0.54-1.18-1.19c0-0.65,0.53-1.18,1.19-1.18c0,0,0,0,0.01,0l7.12,0.04c0.65,0,1.18,0.54,1.18,1.19
				C2382.81,3225.18,2382.27,3225.71,2381.62,3225.71z M2357.87,3225.57C2357.87,3225.57,2357.87,3225.57,2357.87,3225.57
				l-7.13-0.04c-0.66,0-1.18-0.54-1.18-1.19c0-0.66,0.58-1.16,1.19-1.18l7.12,0.04c0.66,0,1.18,0.54,1.18,1.19
				C2359.06,3225.04,2358.53,3225.57,2357.87,3225.57z M2334.13,3225.43L2334.13,3225.43l-7.13-0.04c-0.66,0-1.18-0.54-1.18-1.19
				c0-0.65,0.53-1.18,1.19-1.18c0,0,0,0,0,0l7.13,0.04c0.66,0,1.18,0.54,1.18,1.19C2335.31,3224.9,2334.78,3225.43,2334.13,3225.43z
				 M3133.94,3225.3c-0.5,0-0.96-0.32-1.13-0.81c-0.21-0.62,0.13-1.29,0.75-1.5c2.22-0.74,4.43-1.57,6.58-2.48
				c0.6-0.25,1.3,0.03,1.56,0.63c0.25,0.6-0.03,1.3-0.63,1.56c-2.21,0.93-4.48,1.78-6.75,2.54
				C3134.19,3225.28,3134.06,3225.3,3133.94,3225.3z M2310.38,3225.29C2310.38,3225.29,2310.37,3225.29,2310.38,3225.29l-7.13-0.04
				c-0.66,0-1.18-0.54-1.18-1.19c0-0.66,0.58-1.21,1.19-1.18l7.12,0.04c0.66,0,1.18,0.54,1.18,1.19
				C2311.56,3224.76,2311.03,3225.29,2310.38,3225.29z M2286.63,3225.15C2286.63,3225.15,2286.62,3225.15,2286.63,3225.15
				l-7.13-0.04c-0.66,0-1.18-0.54-1.18-1.19c0-0.65,0.53-1.18,1.19-1.18c0,0,0,0,0.01,0l7.12,0.04c0.66,0,1.18,0.54,1.18,1.19
				C2287.81,3224.62,2287.28,3225.15,2286.63,3225.15z M2262.88,3225.01C2262.88,3225.01,2262.88,3225.01,2262.88,3225.01
				l-7.13-0.04c-0.66,0-1.18-0.54-1.18-1.19c0-0.65,0.53-1.18,1.19-1.18c0,0,0,0,0,0l7.13,0.04c0.66,0,1.18,0.54,1.18,1.19
				C2264.06,3224.48,2263.53,3225.01,2262.88,3225.01z M2239.13,3224.87C2239.13,3224.87,2239.13,3224.87,2239.13,3224.87
				l-7.13-0.04c-0.66,0-1.18-0.54-1.18-1.19c0-0.65,0.53-1.18,1.19-1.18c0,0,0,0,0.01,0l7.12,0.04c0.66,0,1.18,0.54,1.18,1.19
				C2240.31,3224.34,2239.78,3224.87,2239.13,3224.87z M2215.38,3224.73C2215.38,3224.73,2215.38,3224.73,2215.38,3224.73
				l-7.13-0.04c-0.66,0-1.18-0.54-1.18-1.19c0-0.65,0.53-1.18,1.19-1.18c0,0,0,0,0.01,0l7.12,0.04c0.66,0,1.18,0.54,1.18,1.19
				C2216.57,3224.2,2216.04,3224.73,2215.38,3224.73z M2191.63,3224.59C2191.63,3224.59,2191.63,3224.59,2191.63,3224.59l-7.13-0.04
				c-0.66,0-1.18-0.54-1.18-1.19c0-0.65,0.53-1.18,1.19-1.18c0,0,0,0,0,0l7.13,0.04c0.66,0,1.18,0.54,1.18,1.19
				C2192.82,3224.06,2192.29,3224.59,2191.63,3224.59z M2167.89,3224.32c-0.02,0-0.04,0-0.06,0c-2.37-0.12-4.79-0.31-7.17-0.56
				c-0.65-0.07-1.13-0.65-1.06-1.31c0.07-0.65,0.64-1.14,1.31-1.06c2.34,0.25,4.7,0.43,7.03,0.55c0.66,0.03,1.16,0.59,1.13,1.25
				C2169.04,3223.83,2168.52,3224.32,2167.89,3224.32z M2144.42,3220.94c-0.09,0-0.19-0.01-0.28-0.03
				c-2.32-0.56-4.65-1.19-6.94-1.88c-0.63-0.19-0.98-0.85-0.79-1.48c0.19-0.63,0.85-0.98,1.48-0.79c2.24,0.68,4.53,1.3,6.81,1.84
				c0.64,0.15,1.03,0.8,0.88,1.43C2145.45,3220.58,2144.96,3220.94,2144.42,3220.94z M3155.26,3214.99c-0.39,0-0.77-0.19-0.99-0.54
				c-0.36-0.55-0.21-1.28,0.34-1.64c1.96-1.28,3.89-2.66,5.73-4.08c0.52-0.4,1.26-0.3,1.67,0.21c0.4,0.52,0.31,1.26-0.21,1.67
				c-1.89,1.46-3.86,2.87-5.87,4.19C3155.71,3214.92,3155.48,3214.99,3155.26,3214.99z M2122,3213.25c-0.16,0-0.33-0.03-0.49-0.11
				c-2.16-0.98-4.34-2.03-6.46-3.14c-0.58-0.3-0.81-1.02-0.5-1.6c0.3-0.58,1.02-0.81,1.6-0.5c2.08,1.09,4.21,2.12,6.33,3.08
				c0.6,0.27,0.86,0.97,0.59,1.57C2122.88,3212.99,2122.45,3213.25,2122,3213.25z M2101.42,3201.51c-0.24,0-0.47-0.07-0.68-0.22
				c-1.95-1.37-3.89-2.81-5.76-4.29c-0.51-0.41-0.6-1.15-0.2-1.67c0.41-0.51,1.15-0.6,1.67-0.2c1.84,1.45,3.74,2.87,5.66,4.21
				c0.54,0.38,0.67,1.12,0.29,1.65C2102.16,3201.34,2101.79,3201.51,2101.42,3201.51z M3173.22,3199.55c-0.28,0-0.57-0.1-0.79-0.3
				c-0.49-0.44-0.53-1.19-0.09-1.68c1.56-1.73,3.06-3.55,4.49-5.41c0.4-0.52,1.14-0.62,1.66-0.22c0.52,0.4,0.62,1.14,0.22,1.66
				c-1.46,1.91-3.01,3.78-4.6,5.55C3173.87,3199.42,3173.54,3199.55,3173.22,3199.55z M2083.37,3186.16c-0.31,0-0.62-0.12-0.85-0.36
				c-1.67-1.71-3.31-3.49-4.87-5.29c-0.43-0.49-0.38-1.24,0.12-1.67c0.49-0.43,1.24-0.38,1.67,0.12c1.54,1.77,3.15,3.51,4.78,5.19
				c0.46,0.47,0.45,1.22-0.02,1.68C2083.96,3186.04,2083.66,3186.16,2083.37,3186.16z M3186.6,3180.02c-0.18,0-0.36-0.04-0.54-0.13
				c-0.58-0.3-0.82-1.01-0.52-1.6c1.05-2.08,2.04-4.23,2.93-6.38c0.25-0.61,0.95-0.89,1.55-0.65c0.61,0.25,0.9,0.94,0.65,1.55
				c-0.91,2.22-1.92,4.42-3.01,6.55C3187.45,3179.78,3187.03,3180.02,3186.6,3180.02z M2068.47,3167.7c-0.39,0-0.76-0.19-0.99-0.53
				c-1.32-2-2.6-4.05-3.8-6.11c-0.33-0.57-0.14-1.29,0.43-1.62c0.57-0.33,1.3-0.14,1.62,0.43c1.18,2.02,2.43,4.03,3.73,5.99
				c0.36,0.55,0.21,1.28-0.34,1.65C2068.93,3167.64,2068.7,3167.7,2068.47,3167.7z M3194.45,3157.69c-0.08,0-0.16-0.01-0.24-0.03
				c-0.64-0.13-1.05-0.76-0.92-1.41c0.37-1.74,0.69-3.53,0.95-5.31l0.24-1.64c0.1-0.65,0.7-1.11,1.35-1c0.65,0.09,1.1,0.7,1,1.35
				l-0.24,1.64c-0.27,1.83-0.6,3.66-0.98,5.45C3195.49,3157.31,3195,3157.69,3194.45,3157.69z M2057.29,3146.78
				c-0.46,0-0.9-0.27-1.1-0.73c-0.92-2.2-1.79-4.46-2.59-6.72c-0.22-0.62,0.11-1.3,0.73-1.51c0.62-0.21,1.3,0.11,1.51,0.73
				c0.78,2.22,1.64,4.44,2.54,6.59c0.25,0.6-0.03,1.3-0.64,1.55C2057.6,3146.75,2057.45,3146.78,2057.29,3146.78z M3198.01,3134.21
				c-0.05,0-0.11,0-0.16-0.01c-0.65-0.09-1.1-0.69-1.01-1.34c0.32-2.32,0.65-4.67,0.97-7.06c0.09-0.65,0.68-1.1,1.34-1.02
				c0.65,0.09,1.11,0.69,1.02,1.34c-0.32,2.39-0.65,4.74-0.97,7.06C3199.1,3133.78,3198.59,3134.21,3198.01,3134.21z
				 M2050.26,3124.11c-0.55,0-1.04-0.38-1.16-0.94c-0.49-2.34-0.92-4.72-1.27-7.07c-0.1-0.65,0.35-1.25,1-1.35
				c0.66-0.08,1.25,0.35,1.35,1c0.35,2.31,0.76,4.64,1.24,6.94c0.13,0.64-0.28,1.27-0.92,1.4
				C2050.42,3124.11,2050.34,3124.11,2050.26,3124.11z M3201.15,3110.66c-0.05,0-0.1,0-0.15-0.01c-0.65-0.08-1.11-0.68-1.03-1.33
				l0.89-7.07c0.08-0.65,0.68-1.12,1.32-1.03c0.65,0.08,1.11,0.67,1.03,1.32l-0.89,7.07
				C3202.25,3110.23,3201.74,3110.66,3201.15,3110.66z M2047.61,3100.56c-0.64,0-1.17-0.51-1.19-1.15l-0.23-7.12
				c-0.02-0.66,0.49-1.2,1.15-1.22c0.66-0.06,1.2,0.49,1.22,1.15l0.23,7.12c0.02,0.66-0.49,1.2-1.15,1.22
				C2047.63,3100.56,2047.62,3100.56,2047.61,3100.56z M3204.02,3087.08c-0.05,0-0.09,0-0.14-0.01c-0.65-0.08-1.12-0.66-1.04-1.32
				c0.27-2.34,0.54-4.7,0.81-7.08c0.07-0.65,0.67-1.11,1.31-1.05c0.65,0.07,1.12,0.66,1.05,1.31c-0.27,2.38-0.54,4.75-0.81,7.09
				C3205.12,3086.64,3204.61,3087.08,3204.02,3087.08z M2046.84,3076.82c-0.64,0-1.17-0.51-1.19-1.15l-0.23-7.12
				c-0.02-0.66,0.49-1.2,1.15-1.22c0.65-0.04,1.2,0.49,1.22,1.15l0.23,7.12c0.02,0.66-0.49,1.2-1.15,1.22
				C2046.87,3076.82,2046.86,3076.82,2046.84,3076.82z M3206.61,3063.47c-0.04,0-0.08,0-0.12-0.01c-0.65-0.07-1.13-0.65-1.06-1.3
				c0.24-2.34,0.49-4.71,0.73-7.09c0.06-0.65,0.65-1.12,1.3-1.06c0.65,0.07,1.13,0.65,1.06,1.3c-0.24,2.38-0.48,4.75-0.73,7.09
				C3207.73,3063.02,3207.21,3063.47,3206.61,3063.47z M2046.08,3053.08c-0.64,0-1.17-0.51-1.19-1.15l-0.23-7.12
				c-0.02-0.66,0.49-1.2,1.15-1.22c0.56-0.09,1.21,0.49,1.22,1.15l0.23,7.12c0.02,0.66-0.49,1.2-1.15,1.22
				C2046.11,3053.08,2046.09,3053.08,2046.08,3053.08z M3208.94,3039.83c-0.04,0-0.07,0-0.11,0c-0.65-0.06-1.13-0.64-1.07-1.29
				c0.22-2.35,0.43-4.71,0.64-7.09c0.06-0.65,0.62-1.14,1.29-1.08c0.65,0.06,1.14,0.64,1.08,1.29c-0.21,2.38-0.43,4.75-0.64,7.1
				C3210.06,3039.37,3209.55,3039.83,3208.94,3039.83z M2045.32,3029.35c-0.64,0-1.17-0.51-1.19-1.15l-0.23-7.12
				c-0.02-0.66,0.49-1.2,1.15-1.22c0.57-0.09,1.2,0.49,1.23,1.15l0.23,7.12c0.02,0.66-0.49,1.2-1.15,1.22
				C2045.34,3029.35,2045.33,3029.35,2045.32,3029.35z M3210.99,3016.17c-0.03,0-0.06,0-0.1,0c-0.65-0.05-1.14-0.63-1.09-1.28
				l0.56-7.1c0.05-0.65,0.59-1.14,1.28-1.09c0.65,0.05,1.14,0.62,1.09,1.28l-0.56,7.11
				C3212.12,3015.7,3211.6,3016.17,3210.99,3016.17z M2044.55,3005.61c-0.64,0-1.17-0.51-1.19-1.15l-0.23-7.12
				c-0.02-0.66,0.49-1.2,1.15-1.22c0.64-0.03,1.2,0.49,1.22,1.15l0.23,7.12c0.02,0.66-0.49,1.2-1.15,1.22
				C2044.58,3005.61,2044.57,3005.61,2044.55,3005.61z M3212.76,2992.48c-0.03,0-0.05,0-0.08,0c-0.65-0.05-1.15-0.61-1.1-1.27
				l0.47-7.11c0.04-0.65,0.59-1.14,1.26-1.11c0.65,0.04,1.15,0.61,1.11,1.26l-0.47,7.11
				C3213.9,2992,3213.38,2992.48,3212.76,2992.48z M2043.79,2981.87c-0.64,0-1.17-0.51-1.19-1.15l-0.23-7.12
				c-0.02-0.66,0.49-1.2,1.15-1.22c0.63-0.07,1.2,0.49,1.23,1.15l0.23,7.12c0.02,0.66-0.49,1.2-1.15,1.23
				C2043.82,2981.87,2043.8,2981.87,2043.79,2981.87z M3214.24,2968.77c-0.02,0-0.05,0-0.07,0c-0.66-0.04-1.16-0.6-1.12-1.25
				c0.13-2.36,0.26-4.73,0.38-7.11c0.03-0.66,0.6-1.16,1.25-1.13c0.66,0.03,1.16,0.59,1.13,1.25c-0.12,2.38-0.25,4.76-0.39,7.12
				C3215.39,2968.29,3214.86,2968.77,3214.24,2968.77z M2043.03,2958.14c-0.64,0-1.17-0.51-1.18-1.15l-0.23-7.12
				c-0.02-0.66,0.49-1.2,1.15-1.22c0.62-0.05,1.2,0.49,1.22,1.15l0.23,7.12c0.02,0.66-0.49,1.2-1.15,1.22
				C2043.05,2958.14,2043.04,2958.14,2043.03,2958.14z M3215.41,2945.05c-0.02,0-0.03,0-0.05,0c-0.66-0.03-1.16-0.58-1.14-1.24
				c0.1-2.36,0.2-4.74,0.29-7.12c0.03-0.66,0.59-1.19,1.23-1.14c0.66,0.03,1.17,0.58,1.14,1.23c-0.09,2.38-0.19,4.76-0.29,7.12
				C3216.57,2944.55,3216.04,2945.05,3215.41,2945.05z M2042.26,2934.4c-0.64,0-1.17-0.51-1.19-1.15l-0.23-7.12
				c-0.02-0.66,0.49-1.2,1.15-1.22c0.58-0.07,1.2,0.49,1.22,1.15l0.23,7.12c0.02,0.66-0.49,1.2-1.15,1.22
				C2042.29,2934.4,2042.28,2934.4,2042.26,2934.4z M3216.27,2921.31c-0.01,0-0.02,0-0.04,0c-0.66-0.02-1.17-0.57-1.15-1.22
				c0.07-2.37,0.13-4.74,0.19-7.12c0.02-0.66,0.54-1.16,1.22-1.16c0.66,0.02,1.17,0.56,1.16,1.22c-0.06,2.38-0.13,4.76-0.19,7.13
				C3217.44,2920.8,3216.91,2921.31,3216.27,2921.31z M2041.5,2910.66c-0.64,0-1.17-0.51-1.19-1.15l-0.23-7.12
				c-0.02-0.66,0.49-1.2,1.15-1.22c0.58-0.07,1.2,0.49,1.22,1.15l0.23,7.12c0.02,0.66-0.49,1.2-1.15,1.22
				C2041.53,2910.66,2041.52,2910.66,2041.5,2910.66z M3216.8,2897.57c-0.01,0-0.01,0-0.02,0c-0.66-0.01-1.18-0.55-1.17-1.21
				c0.04-2.37,0.07-4.74,0.09-7.12c0.01-0.66,0.62-1.16,1.2-1.17c0.66,0.01,1.18,0.54,1.17,1.2c-0.03,2.38-0.06,4.76-0.09,7.13
				C3217.98,2897.05,3217.45,2897.57,3216.8,2897.57z M2040.74,2886.93c-0.64,0-1.17-0.51-1.19-1.15l-0.23-7.12
				c-0.02-0.66,0.49-1.2,1.15-1.22c0.58-0.06,1.2,0.49,1.22,1.15l0.23,7.12c0.02,0.66-0.49,1.2-1.15,1.22
				C2040.76,2886.93,2040.75,2886.93,2040.74,2886.93z M3216.99,2873.82c-0.66,0-1.19-0.53-1.19-1.19v-0.58c0-2.18,0-4.36-0.01-6.54
				c0-0.66,0.53-1.19,1.18-1.19h0c0.66,0,1.19,0.53,1.19,1.18c0.01,2.19,0.01,4.37,0.01,6.55v0.58
				C3218.17,2873.29,3217.64,2873.82,3216.99,2873.82z M2039.98,2863.19c-0.64,0-1.17-0.51-1.19-1.15l-0.23-7.12
				c-0.02-0.66,0.49-1.2,1.15-1.22c0.66-0.08,1.2,0.49,1.23,1.15l0.23,7.12c0.02,0.66-0.49,1.2-1.15,1.23
				C2040,2863.19,2039.99,2863.19,2039.98,2863.19z M3216.81,2850.08c-0.65,0-1.18-0.52-1.19-1.17c-0.04-2.37-0.08-4.74-0.13-7.11
				c-0.01-0.66,0.51-1.2,1.16-1.21c0.56-0.05,1.2,0.51,1.21,1.16c0.05,2.38,0.09,4.75,0.13,7.13c0.01,0.66-0.51,1.19-1.17,1.21
				C3216.82,2850.08,3216.82,2850.08,3216.81,2850.08z M2039.21,2839.45c-0.64,0-1.17-0.51-1.19-1.15l-0.23-7.12
				c-0.02-0.66,0.49-1.2,1.15-1.22c0.59-0.06,1.2,0.49,1.22,1.15l0.23,7.12c0.02,0.66-0.49,1.2-1.15,1.23
				C2039.24,2839.45,2039.22,2839.45,2039.21,2839.45z M3216.25,2826.34c-0.64,0-1.17-0.51-1.19-1.15
				c-0.08-2.37-0.16-4.74-0.24-7.11c-0.02-0.66,0.49-1.21,1.14-1.23c0.66-0.06,1.21,0.49,1.23,1.14c0.09,2.38,0.17,4.75,0.25,7.13
				c0.02,0.66-0.49,1.2-1.15,1.22C3216.28,2826.34,3216.27,2826.34,3216.25,2826.34z M2038.45,2815.72c-0.64,0-1.17-0.51-1.19-1.15
				l-0.23-7.12c-0.02-0.66,0.49-1.2,1.15-1.22c0.65-0.04,1.2,0.49,1.22,1.15l0.23,7.12c0.02,0.65-0.49,1.2-1.15,1.22
				C2038.47,2815.72,2038.46,2815.72,2038.45,2815.72z M3215.29,2802.62c-0.63,0-1.15-0.49-1.19-1.13
				c-0.12-2.37-0.24-4.74-0.37-7.11c-0.04-0.66,0.47-1.22,1.12-1.25c0.64-0.03,1.22,0.47,1.25,1.12c0.13,2.37,0.25,4.75,0.37,7.12
				c0.03,0.66-0.47,1.21-1.13,1.25C3215.33,2802.62,3215.31,2802.62,3215.29,2802.62z M2037.69,2791.98c-0.64,0-1.17-0.51-1.19-1.15
				l-0.23-7.12c-0.02-0.66,0.49-1.2,1.15-1.23c0.68,0.01,1.2,0.49,1.22,1.15l0.23,7.12c0.02,0.65-0.49,1.2-1.15,1.23
				C2037.71,2791.98,2037.7,2791.98,2037.69,2791.98z M3213.91,2778.91c-0.62,0-1.14-0.48-1.18-1.11c-0.16-2.37-0.33-4.73-0.5-7.1
				c-0.05-0.65,0.44-1.22,1.1-1.27c0.69-0.04,1.22,0.44,1.27,1.1c0.17,2.37,0.34,4.74,0.5,7.11c0.04,0.66-0.45,1.22-1.11,1.27
				C3213.96,2778.91,3213.93,2778.91,3213.91,2778.91z M2036.92,2768.24c-0.64,0-1.17-0.51-1.19-1.15l-0.23-7.12
				c-0.02-0.66,0.49-1.2,1.15-1.22c0.6-0.1,1.2,0.49,1.22,1.15l0.23,7.12c0.02,0.66-0.49,1.2-1.15,1.22
				C2036.95,2768.24,2036.93,2768.24,2036.92,2768.24z M3212.07,2755.23c-0.61,0-1.13-0.47-1.18-1.08
				c-0.21-2.36-0.42-4.73-0.64-7.09c-0.06-0.65,0.42-1.23,1.07-1.29c0.66-0.05,1.23,0.42,1.29,1.07c0.22,2.37,0.44,4.73,0.65,7.1
				c0.06,0.65-0.43,1.23-1.08,1.29C3212.14,2755.23,3212.1,2755.23,3212.07,2755.23z M2036.16,2744.51c-0.64,0-1.17-0.51-1.19-1.15
				l-0.23-7.12c-0.02-0.66,0.49-1.2,1.15-1.23c0.6-0.04,1.2,0.49,1.23,1.15l0.23,7.12c0.02,0.66-0.49,1.2-1.15,1.23
				C2036.19,2744.51,2036.17,2744.51,2036.16,2744.51z M3209.74,2731.6c-0.6,0-1.11-0.45-1.18-1.06c-0.26-2.36-0.52-4.72-0.8-7.07
				c-0.08-0.65,0.39-1.24,1.04-1.32c0.67-0.08,1.24,0.39,1.32,1.04c0.27,2.36,0.54,4.72,0.8,7.09c0.07,0.65-0.4,1.24-1.05,1.31
				C3209.83,2731.59,3209.78,2731.6,3209.74,2731.6z M2035.4,2720.77c-0.64,0-1.17-0.51-1.19-1.15l-0.27-8.35h4.31
				c0.66,0,1.19,0.53,1.19,1.19c0,0.66-0.53,1.19-1.19,1.19h-1.86l0.19,5.9c0.02,0.66-0.49,1.2-1.15,1.23
				C2035.42,2720.77,2035.41,2720.77,2035.4,2720.77z M3201.95,2713.65h-7.12c-0.66,0-1.19-0.53-1.19-1.19
				c0-0.66,0.53-1.19,1.19-1.19h7.12c0.66,0,1.19,0.53,1.19,1.19C3203.13,2713.12,3202.6,2713.65,3201.95,2713.65z M3178.2,2713.65
				h-7.12c-0.66,0-1.19-0.53-1.19-1.19c0-0.66,0.53-1.19,1.19-1.19h7.12c0.66,0,1.19,0.53,1.19,1.19
				C3179.39,2713.12,3178.85,2713.65,3178.2,2713.65z M3154.45,2713.65h-7.12c-0.66,0-1.19-0.53-1.19-1.19
				c0-0.66,0.53-1.19,1.19-1.19h7.12c0.66,0,1.19,0.53,1.19,1.19C3155.64,2713.12,3155.1,2713.65,3154.45,2713.65z M3130.7,2713.65
				h-7.12c-0.66,0-1.19-0.53-1.19-1.19c0-0.66,0.53-1.19,1.19-1.19h7.12c0.66,0,1.19,0.53,1.19,1.19
				C3131.89,2713.12,3131.36,2713.65,3130.7,2713.65z M3106.95,2713.65h-7.12c-0.66,0-1.19-0.53-1.19-1.19
				c0-0.66,0.53-1.19,1.19-1.19h7.12c0.66,0,1.19,0.53,1.19,1.19C3108.14,2713.12,3107.61,2713.65,3106.95,2713.65z M3083.2,2713.65
				h-7.12c-0.66,0-1.19-0.53-1.19-1.19c0-0.66,0.53-1.19,1.19-1.19h7.12c0.66,0,1.19,0.53,1.19,1.19
				C3084.39,2713.12,3083.86,2713.65,3083.2,2713.65z M3059.45,2713.65h-7.12c-0.66,0-1.19-0.53-1.19-1.19
				c0-0.66,0.53-1.19,1.19-1.19h7.12c0.66,0,1.19,0.53,1.19,1.19C3060.64,2713.12,3060.11,2713.65,3059.45,2713.65z M3035.7,2713.65
				h-7.12c-0.66,0-1.19-0.53-1.19-1.19c0-0.66,0.53-1.19,1.19-1.19h7.12c0.66,0,1.19,0.53,1.19,1.19
				C3036.89,2713.12,3036.36,2713.65,3035.7,2713.65z M3011.96,2713.65h-7.12c-0.66,0-1.19-0.53-1.19-1.19
				c0-0.66,0.53-1.19,1.19-1.19h7.12c0.66,0,1.19,0.53,1.19,1.19C3013.14,2713.12,3012.61,2713.65,3011.96,2713.65z
				 M2988.21,2713.65h-7.12c-0.66,0-1.19-0.53-1.19-1.19c0-0.66,0.53-1.19,1.19-1.19h7.12c0.66,0,1.19,0.53,1.19,1.19
				C2989.39,2713.12,2988.86,2713.65,2988.21,2713.65z M2964.46,2713.65h-7.12c-0.66,0-1.19-0.53-1.19-1.19
				c0-0.66,0.53-1.19,1.19-1.19h7.12c0.66,0,1.19,0.53,1.19,1.19C2965.65,2713.12,2965.11,2713.65,2964.46,2713.65z
				 M2940.71,2713.65h-7.12c-0.66,0-1.19-0.53-1.19-1.19c0-0.66,0.53-1.19,1.19-1.19h7.12c0.66,0,1.19,0.53,1.19,1.19
				C2941.9,2713.12,2941.36,2713.65,2940.71,2713.65z M2916.96,2713.65h-7.12c-0.66,0-1.19-0.53-1.19-1.19
				c0-0.66,0.53-1.19,1.19-1.19h7.12c0.66,0,1.19,0.53,1.19,1.19C2918.15,2713.12,2917.62,2713.65,2916.96,2713.65z
				 M2893.21,2713.65h-7.12c-0.66,0-1.19-0.53-1.19-1.19c0-0.66,0.53-1.19,1.19-1.19h7.12c0.66,0,1.19,0.53,1.19,1.19
				C2894.4,2713.12,2893.87,2713.65,2893.21,2713.65z M2869.46,2713.65h-7.12c-0.66,0-1.19-0.53-1.19-1.19
				c0-0.66,0.53-1.19,1.19-1.19h7.12c0.66,0,1.19,0.53,1.19,1.19C2870.65,2713.12,2870.12,2713.65,2869.46,2713.65z
				 M2845.71,2713.65h-7.12c-0.66,0-1.19-0.53-1.19-1.19c0-0.66,0.53-1.19,1.19-1.19h7.12c0.66,0,1.19,0.53,1.19,1.19
				C2846.9,2713.12,2846.37,2713.65,2845.71,2713.65z M2821.96,2713.65h-7.12c-0.66,0-1.19-0.53-1.19-1.19
				c0-0.66,0.53-1.19,1.19-1.19h7.12c0.66,0,1.19,0.53,1.19,1.19C2823.15,2713.12,2822.62,2713.65,2821.96,2713.65z
				 M2798.22,2713.65h-7.12c-0.66,0-1.19-0.53-1.19-1.19c0-0.66,0.53-1.19,1.19-1.19h7.12c0.66,0,1.19,0.53,1.19,1.19
				C2799.4,2713.12,2798.87,2713.65,2798.22,2713.65z M2774.47,2713.65h-7.12c-0.66,0-1.19-0.53-1.19-1.19
				c0-0.66,0.53-1.19,1.19-1.19h7.12c0.66,0,1.19,0.53,1.19,1.19C2775.65,2713.12,2775.12,2713.65,2774.47,2713.65z
				 M2750.72,2713.65h-7.12c-0.66,0-1.19-0.53-1.19-1.19c0-0.66,0.53-1.19,1.19-1.19h7.12c0.66,0,1.19,0.53,1.19,1.19
				C2751.91,2713.12,2751.37,2713.65,2750.72,2713.65z M2726.97,2713.65h-7.12c-0.66,0-1.19-0.53-1.19-1.19
				c0-0.66,0.53-1.19,1.19-1.19h7.12c0.66,0,1.19,0.53,1.19,1.19C2728.16,2713.12,2727.63,2713.65,2726.97,2713.65z
				 M2703.22,2713.65h-7.12c-0.66,0-1.19-0.53-1.19-1.19c0-0.66,0.53-1.19,1.19-1.19h7.12c0.66,0,1.19,0.53,1.19,1.19
				C2704.41,2713.12,2703.88,2713.65,2703.22,2713.65z M2679.47,2713.65h-7.12c-0.66,0-1.19-0.53-1.19-1.19
				c0-0.66,0.53-1.19,1.19-1.19h7.12c0.66,0,1.19,0.53,1.19,1.19C2680.66,2713.12,2680.13,2713.65,2679.47,2713.65z
				 M2655.72,2713.65h-7.12c-0.66,0-1.19-0.53-1.19-1.19c0-0.66,0.53-1.19,1.19-1.19h7.12c0.66,0,1.19,0.53,1.19,1.19
				C2656.91,2713.12,2656.38,2713.65,2655.72,2713.65z M2631.97,2713.65h-7.12c-0.66,0-1.19-0.53-1.19-1.19
				c0-0.66,0.53-1.19,1.19-1.19h7.12c0.66,0,1.19,0.53,1.19,1.19C2633.16,2713.12,2632.63,2713.65,2631.97,2713.65z
				 M2608.22,2713.65h-7.12c-0.66,0-1.19-0.53-1.19-1.19c0-0.66,0.53-1.19,1.19-1.19h7.12c0.66,0,1.19,0.53,1.19,1.19
				C2609.41,2713.12,2608.88,2713.65,2608.22,2713.65z M2584.48,2713.65h-7.12c-0.66,0-1.19-0.53-1.19-1.19
				c0-0.66,0.53-1.19,1.19-1.19h7.12c0.66,0,1.19,0.53,1.19,1.19C2585.66,2713.12,2585.13,2713.65,2584.48,2713.65z
				 M2560.73,2713.65h-7.12c-0.66,0-1.19-0.53-1.19-1.19c0-0.66,0.53-1.19,1.19-1.19h7.12c0.66,0,1.19,0.53,1.19,1.19
				C2561.91,2713.12,2561.38,2713.65,2560.73,2713.65z M2536.98,2713.65h-7.12c-0.66,0-1.19-0.53-1.19-1.19
				c0-0.66,0.53-1.19,1.19-1.19h7.12c0.66,0,1.19,0.53,1.19,1.19C2538.17,2713.12,2537.63,2713.65,2536.98,2713.65z
				 M2513.23,2713.65h-7.12c-0.66,0-1.19-0.53-1.19-1.19c0-0.66,0.53-1.19,1.19-1.19h7.12c0.66,0,1.19,0.53,1.19,1.19
				C2514.42,2713.12,2513.89,2713.65,2513.23,2713.65z M2489.48,2713.65h-7.12c-0.66,0-1.19-0.53-1.19-1.19
				c0-0.66,0.53-1.19,1.19-1.19h7.12c0.66,0,1.19,0.53,1.19,1.19C2490.67,2713.12,2490.14,2713.65,2489.48,2713.65z
				 M2465.73,2713.65h-7.12c-0.66,0-1.19-0.53-1.19-1.19c0-0.66,0.53-1.19,1.19-1.19h7.12c0.66,0,1.19,0.53,1.19,1.19
				C2466.92,2713.12,2466.39,2713.65,2465.73,2713.65z M2441.98,2713.65h-7.12c-0.66,0-1.19-0.53-1.19-1.19
				c0-0.66,0.53-1.19,1.19-1.19h7.12c0.66,0,1.19,0.53,1.19,1.19C2443.17,2713.12,2442.64,2713.65,2441.98,2713.65z
				 M2418.23,2713.65h-7.12c-0.66,0-1.19-0.53-1.19-1.19c0-0.66,0.53-1.19,1.19-1.19h7.12c0.66,0,1.19,0.53,1.19,1.19
				C2419.42,2713.12,2418.89,2713.65,2418.23,2713.65z M2394.48,2713.65h-7.12c-0.66,0-1.19-0.53-1.19-1.19
				c0-0.66,0.53-1.19,1.19-1.19h7.12c0.66,0,1.19,0.53,1.19,1.19C2395.67,2713.12,2395.14,2713.65,2394.48,2713.65z
				 M2370.74,2713.65h-7.12c-0.66,0-1.19-0.53-1.19-1.19c0-0.66,0.53-1.19,1.19-1.19h7.12c0.66,0,1.19,0.53,1.19,1.19
				C2371.92,2713.12,2371.39,2713.65,2370.74,2713.65z M2346.99,2713.65h-7.12c-0.66,0-1.19-0.53-1.19-1.19
				c0-0.66,0.53-1.19,1.19-1.19h7.12c0.66,0,1.19,0.53,1.19,1.19C2348.17,2713.12,2347.64,2713.65,2346.99,2713.65z
				 M2323.24,2713.65h-7.12c-0.66,0-1.19-0.53-1.19-1.19c0-0.66,0.53-1.19,1.19-1.19h7.12c0.66,0,1.19,0.53,1.19,1.19
				C2324.43,2713.12,2323.89,2713.65,2323.24,2713.65z M2299.49,2713.65h-7.12c-0.66,0-1.19-0.53-1.19-1.19
				c0-0.66,0.53-1.19,1.19-1.19h7.12c0.66,0,1.19,0.53,1.19,1.19C2300.68,2713.12,2300.15,2713.65,2299.49,2713.65z
				 M2275.74,2713.65h-7.12c-0.66,0-1.19-0.53-1.19-1.19c0-0.66,0.53-1.19,1.19-1.19h7.12c0.66,0,1.19,0.53,1.19,1.19
				C2276.93,2713.12,2276.4,2713.65,2275.74,2713.65z M2251.99,2713.65h-7.12c-0.66,0-1.19-0.53-1.19-1.19
				c0-0.66,0.53-1.19,1.19-1.19h7.12c0.66,0,1.19,0.53,1.19,1.19C2253.18,2713.12,2252.65,2713.65,2251.99,2713.65z
				 M2228.24,2713.65h-7.12c-0.66,0-1.19-0.53-1.19-1.19c0-0.66,0.53-1.19,1.19-1.19h7.12c0.66,0,1.19,0.53,1.19,1.19
				C2229.43,2713.12,2228.9,2713.65,2228.24,2713.65z M2204.49,2713.65h-7.12c-0.66,0-1.19-0.53-1.19-1.19
				c0-0.66,0.53-1.19,1.19-1.19h7.12c0.66,0,1.19,0.53,1.19,1.19C2205.68,2713.12,2205.15,2713.65,2204.49,2713.65z
				 M2180.74,2713.65h-7.12c-0.66,0-1.19-0.53-1.19-1.19c0-0.66,0.53-1.19,1.19-1.19h7.12c0.66,0,1.19,0.53,1.19,1.19
				C2181.93,2713.12,2181.4,2713.65,2180.74,2713.65z M2157,2713.65h-7.12c-0.66,0-1.19-0.53-1.19-1.19c0-0.66,0.53-1.19,1.19-1.19
				h7.12c0.66,0,1.19,0.53,1.19,1.19C2158.18,2713.12,2157.65,2713.65,2157,2713.65z M2133.25,2713.65h-7.12
				c-0.66,0-1.19-0.53-1.19-1.19c0-0.66,0.53-1.19,1.19-1.19h7.12c0.66,0,1.19,0.53,1.19,1.19
				C2134.43,2713.12,2133.9,2713.65,2133.25,2713.65z M2109.5,2713.65h-7.12c-0.66,0-1.19-0.53-1.19-1.19
				c0-0.66,0.53-1.19,1.19-1.19h7.12c0.66,0,1.19,0.53,1.19,1.19C2110.69,2713.12,2110.15,2713.65,2109.5,2713.65z M2085.75,2713.65
				h-7.12c-0.66,0-1.19-0.53-1.19-1.19c0-0.66,0.53-1.19,1.19-1.19h7.12c0.66,0,1.19,0.53,1.19,1.19
				C2086.94,2713.12,2086.41,2713.65,2085.75,2713.65z M2062,2713.65h-7.12c-0.66,0-1.19-0.53-1.19-1.19c0-0.66,0.53-1.19,1.19-1.19
				h7.12c0.66,0,1.19,0.53,1.19,1.19C2063.19,2713.12,2062.66,2713.65,2062,2713.65z"/>
			<linearGradient id="SVGID_3_" gradientUnits="userSpaceOnUse" x1="2379.6665" y1="2497.6323" x2="2372.4822" y2="2323.4146">
				<stop  offset="0" style="stop-color:#9F3541"/>
				<stop  offset="1" style="stop-color:#461220"/>
			</linearGradient>
			<path class="st12" d="M2291.81,2415.95l2.94-31.5c3.32-7.52,10.22-12.84,18.37-14.14c30.47-4.85,106.04-13.38,142.43,13.82
				l5.44,36.61L2291.81,2415.95z"/>
			<path class="st1" d="M2387,2385.64c-7.02,1.71-14.04,1.71-21.09-0.02c-8.52-2.09-14.53-9.72-14.53-18.45l0-98.64h50.2l0,98.56
				C2401.58,2375.87,2395.56,2383.55,2387,2385.64z"/>
			<linearGradient id="SVGID_4_" gradientUnits="userSpaceOnUse" x1="2865.0378" y1="2477.6167" x2="2857.8535" y2="2303.3989">
				<stop  offset="0" style="stop-color:#9F3541"/>
				<stop  offset="1" style="stop-color:#461220"/>
			</linearGradient>
			<path class="st13" d="M2778,2415.95l2.94-31.5c3.32-7.52,10.22-12.84,18.37-14.14c30.47-4.85,106.04-13.38,142.43,13.82
				l5.44,36.61L2778,2415.95z"/>
			<path class="st1" d="M2873.19,2385.64c-7.02,1.71-14.04,1.71-21.09-0.02c-8.52-2.09-14.53-9.72-14.53-18.45l0-109.03h50.2
				l0,108.96C2887.78,2375.87,2881.75,2383.55,2873.19,2385.64z"/>
			<linearGradient id="SVGID_5_" gradientUnits="userSpaceOnUse" x1="2655.2566" y1="1958.097" x2="2606.7627" y2="2313.7175">
				<stop  offset="0" style="stop-color:#CB236D"/>
				<stop  offset="1" style="stop-color:#461220"/>
			</linearGradient>
			<path class="st14" d="M2346.28,2292.71l539.84-17.87c12.31-0.41,22.75-9.29,24.86-21.36c2.96-16.9,5.56-42.2,1.68-68.43
				c-4.42-29.82-30.07-51.98-60.36-52.7c-100.71-2.4-357.08-2.32-498.38,53.57c-14.94,5.91-26.03,18.68-29.81,34.24
				c-3.61,14.84-6.01,34.65-1.29,54.82C2325.32,2285.69,2335.24,2293.07,2346.28,2292.71z"/>
			<path class="st2" d="M2336.93,2264.65c-1.2,0-2.24-0.91-2.36-2.14c-0.09-0.85-2.05-21.15,3.23-40.68
				c4.02-14.85,15.76-26.78,30.65-31.15c30.08-8.82,87.54-23.83,134.5-25.14c1.32-0.04,2.4,1,2.44,2.31c0.04,1.31-1,2.4-2.31,2.44
				c-46.42,1.3-103.44,16.19-133.29,24.95c-13.32,3.91-23.82,14.57-27.41,27.83c-5.05,18.66-3.11,38.76-3.09,38.97
				c0.13,1.3-0.82,2.47-2.13,2.6C2337.09,2264.65,2337.01,2264.65,2336.93,2264.65z"/>
			<linearGradient id="SVGID_6_" gradientUnits="userSpaceOnUse" x1="2669.8831" y1="2235.0498" x2="2492.0737" y2="3894.604">
				<stop  offset="0" style="stop-color:#8C2F39"/>
				<stop  offset="1" style="stop-color:#461220"/>
			</linearGradient>
			<path class="st15" d="M2041.34,2403.68c174.4-2.23,928.87-10.16,1148.02,16.28c18.87,2.28,34.27,16.08,38.35,34.56
				c12.95,58.54,39,194.54,35.91,329.35c-0.42,18.35-13.87,33.83-31.98,37.25l-500.26,94.64h-177.7l-533.03-105.95
				c-18.79-3.73-32.64-19.65-33.61-38.69c-3.46-67.82-8.88-226.96,9.46-329.39C2000.41,2419.96,2019.13,2403.96,2041.34,2403.68z"/>
			<path class="st2" d="M2727.28,2873.85h-7.12c-0.66,0-1.19-0.53-1.19-1.19c0-0.66,0.53-1.19,1.19-1.19h7.12
				c0.66,0,1.19,0.53,1.19,1.19C2728.46,2873.32,2727.93,2873.85,2727.28,2873.85z M2703.53,2873.85h-7.12
				c-0.66,0-1.19-0.53-1.19-1.19c0-0.66,0.53-1.19,1.19-1.19h7.12c0.66,0,1.19,0.53,1.19,1.19
				C2704.71,2873.32,2704.18,2873.85,2703.53,2873.85z M2679.78,2873.85h-7.12c-0.66,0-1.19-0.53-1.19-1.19
				c0-0.66,0.53-1.19,1.19-1.19h7.12c0.66,0,1.19,0.53,1.19,1.19C2680.97,2873.32,2680.43,2873.85,2679.78,2873.85z
				 M2656.03,2873.85h-7.12c-0.66,0-1.19-0.53-1.19-1.19c0-0.66,0.53-1.19,1.19-1.19h7.12c0.66,0,1.19,0.53,1.19,1.19
				C2657.22,2873.32,2656.69,2873.85,2656.03,2873.85z M2632.28,2873.85h-7.12c-0.66,0-1.19-0.53-1.19-1.19
				c0-0.66,0.53-1.19,1.19-1.19h7.12c0.66,0,1.19,0.53,1.19,1.19C2633.47,2873.32,2632.94,2873.85,2632.28,2873.85z
				 M2608.53,2873.85h-7.12c-0.66,0-1.19-0.53-1.19-1.19c0-0.66,0.53-1.19,1.19-1.19h7.12c0.66,0,1.19,0.53,1.19,1.19
				C2609.72,2873.32,2609.19,2873.85,2608.53,2873.85z M2584.78,2873.85h-7.12c-0.66,0-1.19-0.53-1.19-1.19
				c0-0.66,0.53-1.19,1.19-1.19h7.12c0.66,0,1.19,0.53,1.19,1.19C2585.97,2873.32,2585.44,2873.85,2584.78,2873.85z
				 M2561.03,2873.85h-3.1l-7.22-1.41c-0.64-0.13-1.06-0.75-0.93-1.4c0.13-0.64,0.75-1.07,1.4-0.93l6.99,1.39l2.87-0.02
				c0.66,0,1.19,0.53,1.19,1.19C2562.22,2873.32,2561.69,2873.85,2561.03,2873.85z M2743.61,2870.77c-0.56,0-1.06-0.4-1.17-0.97
				c-0.12-0.64,0.3-1.27,0.95-1.39l7-1.32c0.64-0.12,1.27,0.3,1.39,0.95c0.12,0.64-0.3,1.27-0.95,1.39l-7,1.32
				C2743.76,2870.76,2743.68,2870.77,2743.61,2870.77z M2534.64,2869.22c-0.08,0-0.15-0.01-0.23-0.02l-6.99-1.39
				c-0.64-0.13-1.06-0.75-0.93-1.4c0.13-0.64,0.74-1.07,1.4-0.93l6.99,1.39c0.64,0.13,1.06,0.75,0.93,1.4
				C2535.69,2868.83,2535.19,2869.22,2534.64,2869.22z M2766.95,2866.36c-0.56,0-1.06-0.4-1.17-0.97c-0.12-0.64,0.3-1.27,0.95-1.39
				l7-1.32c0.64-0.12,1.27,0.3,1.39,0.95c0.12,0.64-0.3,1.27-0.95,1.39l-7,1.32C2767.09,2866.35,2767.02,2866.36,2766.95,2866.36z
				 M2511.35,2864.59c-0.08,0-0.15-0.01-0.23-0.02l-6.99-1.39c-0.64-0.13-1.06-0.75-0.93-1.4c0.13-0.64,0.75-1.07,1.4-0.93
				l6.99,1.39c0.64,0.13,1.06,0.75,0.93,1.4C2512.4,2864.2,2511.9,2864.59,2511.35,2864.59z M2790.28,2861.94
				c-0.56,0-1.06-0.4-1.17-0.97c-0.12-0.64,0.3-1.27,0.95-1.39l7-1.32c0.64-0.12,1.27,0.3,1.39,0.95c0.12,0.64-0.3,1.27-0.95,1.39
				l-7,1.32C2790.43,2861.93,2790.35,2861.94,2790.28,2861.94z M2488.05,2859.96c-0.08,0-0.15-0.01-0.23-0.02l-6.99-1.39
				c-0.64-0.13-1.06-0.75-0.93-1.4c0.13-0.64,0.74-1.07,1.4-0.93l6.99,1.39c0.64,0.13,1.06,0.75,0.93,1.4
				C2489.1,2859.57,2488.61,2859.96,2488.05,2859.96z M2813.61,2857.53c-0.56,0-1.06-0.4-1.17-0.97c-0.12-0.64,0.3-1.26,0.95-1.39
				l7-1.32c0.65-0.11,1.27,0.3,1.39,0.95s-0.3,1.27-0.95,1.39l-7,1.32C2813.76,2857.52,2813.69,2857.53,2813.61,2857.53z
				 M2464.76,2855.33c-0.08,0-0.15-0.01-0.23-0.02l-6.99-1.39c-0.64-0.13-1.06-0.75-0.93-1.4c0.13-0.64,0.75-1.06,1.4-0.93
				l6.99,1.39c0.64,0.13,1.06,0.75,0.93,1.4C2465.81,2854.94,2465.31,2855.33,2464.76,2855.33z M2836.95,2853.11
				c-0.56,0-1.06-0.4-1.17-0.97c-0.12-0.64,0.3-1.27,0.95-1.39l7-1.32c0.65-0.12,1.27,0.3,1.39,0.95c0.12,0.64-0.3,1.27-0.95,1.39
				l-7,1.32C2837.1,2853.11,2837.02,2853.11,2836.95,2853.11z M2441.47,2850.7c-0.08,0-0.15-0.01-0.23-0.02l-6.99-1.39
				c-0.64-0.13-1.06-0.75-0.93-1.4c0.13-0.64,0.74-1.07,1.4-0.93l6.99,1.39c0.64,0.13,1.06,0.75,0.93,1.4
				C2442.52,2850.31,2442.02,2850.7,2441.47,2850.7z M2860.28,2848.7c-0.56,0-1.06-0.4-1.17-0.97c-0.12-0.64,0.3-1.26,0.95-1.39
				l7-1.32c0.65-0.12,1.26,0.3,1.39,0.95c0.12,0.64-0.3,1.26-0.95,1.39l-7,1.32C2860.43,2848.69,2860.36,2848.7,2860.28,2848.7z
				 M2418.17,2846.07c-0.08,0-0.15-0.01-0.23-0.02l-6.99-1.39c-0.64-0.13-1.06-0.75-0.93-1.4c0.13-0.64,0.75-1.06,1.4-0.93
				l6.99,1.39c0.64,0.13,1.06,0.75,0.93,1.4C2419.22,2845.68,2418.73,2846.07,2418.17,2846.07z M2883.62,2844.28
				c-0.56,0-1.06-0.4-1.17-0.97c-0.12-0.64,0.3-1.27,0.95-1.39l7-1.32c0.65-0.11,1.27,0.3,1.39,0.95c0.12,0.64-0.3,1.27-0.95,1.39
				l-7,1.32C2883.77,2844.28,2883.69,2844.28,2883.62,2844.28z M2394.88,2841.44c-0.08,0-0.15-0.01-0.23-0.02l-6.99-1.39
				c-0.64-0.13-1.06-0.75-0.93-1.4c0.13-0.64,0.75-1.07,1.4-0.93l6.99,1.39c0.64,0.13,1.06,0.75,0.93,1.4
				C2395.93,2841.05,2395.44,2841.44,2394.88,2841.44z M2906.96,2839.87c-0.56,0-1.06-0.4-1.17-0.97c-0.12-0.64,0.3-1.27,0.95-1.39
				l7-1.32c0.65-0.11,1.27,0.3,1.39,0.95c0.12,0.64-0.3,1.27-0.95,1.39l-7,1.32C2907.1,2839.86,2907.03,2839.87,2906.96,2839.87z
				 M2371.59,2836.81c-0.08,0-0.15-0.01-0.23-0.02l-6.99-1.39c-0.64-0.13-1.06-0.75-0.93-1.4c0.13-0.64,0.75-1.06,1.4-0.93
				l6.99,1.39c0.64,0.13,1.06,0.75,0.93,1.4C2372.64,2836.42,2372.14,2836.81,2371.59,2836.81z M2930.29,2835.45
				c-0.56,0-1.06-0.4-1.17-0.97c-0.12-0.64,0.3-1.27,0.95-1.39l7-1.32c0.65-0.12,1.27,0.3,1.39,0.95c0.12,0.64-0.3,1.27-0.95,1.39
				l-7,1.32C2930.44,2835.45,2930.36,2835.45,2930.29,2835.45z M2348.29,2832.18c-0.08,0-0.15-0.01-0.23-0.02l-6.99-1.39
				c-0.64-0.13-1.06-0.75-0.93-1.4c0.13-0.64,0.74-1.07,1.4-0.93l6.99,1.39c0.64,0.13,1.06,0.75,0.93,1.4
				C2349.34,2831.79,2348.85,2832.18,2348.29,2832.18z M2953.63,2831.04c-0.56,0-1.06-0.4-1.17-0.97c-0.12-0.64,0.3-1.27,0.95-1.39
				l7-1.32c0.64-0.12,1.27,0.3,1.39,0.95c0.12,0.64-0.3,1.27-0.95,1.39l-7,1.32C2953.77,2831.03,2953.7,2831.04,2953.63,2831.04z
				 M2325,2827.55c-0.08,0-0.15-0.01-0.23-0.02l-6.99-1.39c-0.64-0.13-1.06-0.75-0.93-1.4c0.13-0.64,0.74-1.06,1.4-0.93l6.99,1.39
				c0.64,0.13,1.06,0.75,0.93,1.4C2326.05,2827.16,2325.56,2827.55,2325,2827.55z M2976.96,2826.62c-0.56,0-1.06-0.4-1.17-0.97
				c-0.12-0.64,0.3-1.27,0.95-1.39l7-1.32c0.64-0.11,1.27,0.3,1.39,0.95c0.12,0.64-0.3,1.27-0.95,1.39l-7,1.32
				C2977.11,2826.62,2977.03,2826.62,2976.96,2826.62z M2301.71,2822.92c-0.08,0-0.15-0.01-0.23-0.02l-6.99-1.39
				c-0.64-0.13-1.06-0.75-0.93-1.4c0.13-0.64,0.75-1.07,1.4-0.93l6.99,1.39c0.64,0.13,1.06,0.75,0.93,1.4
				C2302.76,2822.53,2302.26,2822.92,2301.71,2822.92z M3000.3,2822.21c-0.56,0-1.06-0.4-1.17-0.97c-0.12-0.64,0.3-1.27,0.95-1.39
				l7-1.32c0.64-0.12,1.27,0.3,1.39,0.95c0.12,0.64-0.3,1.27-0.95,1.39l-7,1.32C3000.44,2822.2,3000.37,2822.21,3000.3,2822.21z
				 M2278.41,2818.29c-0.08,0-0.15-0.01-0.23-0.02l-6.99-1.39c-0.64-0.13-1.06-0.75-0.93-1.4c0.13-0.64,0.74-1.07,1.4-0.93
				l6.99,1.39c0.64,0.13,1.06,0.75,0.93,1.4C2279.46,2817.9,2278.97,2818.29,2278.41,2818.29z M3023.63,2817.8
				c-0.56,0-1.06-0.4-1.17-0.97c-0.12-0.64,0.3-1.27,0.95-1.39l7-1.32c0.64-0.12,1.27,0.3,1.39,0.95c0.12,0.64-0.3,1.27-0.95,1.39
				l-7,1.32C3023.78,2817.79,3023.7,2817.8,3023.63,2817.8z M2255.12,2813.66c-0.08,0-0.15-0.01-0.23-0.02l-6.99-1.39
				c-0.64-0.13-1.06-0.75-0.93-1.4c0.13-0.64,0.75-1.07,1.4-0.93l6.99,1.39c0.64,0.13,1.06,0.75,0.93,1.4
				C2256.17,2813.27,2255.68,2813.66,2255.12,2813.66z M3046.97,2813.38c-0.56,0-1.06-0.4-1.17-0.97c-0.12-0.64,0.3-1.27,0.95-1.39
				l7-1.32c0.65-0.12,1.27,0.3,1.39,0.95c0.12,0.64-0.3,1.27-0.95,1.39l-7,1.32C3047.11,2813.37,3047.04,2813.38,3046.97,2813.38z
				 M2231.83,2809.03c-0.08,0-0.15-0.01-0.23-0.02l-6.99-1.39c-0.64-0.13-1.06-0.75-0.93-1.4c0.13-0.64,0.74-1.07,1.4-0.93
				l6.99,1.39c0.64,0.13,1.06,0.75,0.93,1.4C2232.88,2808.64,2232.38,2809.03,2231.83,2809.03z M3070.3,2808.97
				c-0.56,0-1.06-0.4-1.17-0.97c-0.12-0.64,0.3-1.26,0.95-1.39l7-1.32c0.65-0.11,1.27,0.3,1.39,0.95c0.12,0.64-0.3,1.27-0.95,1.39
				l-7,1.32C3070.45,2808.96,3070.37,2808.97,3070.3,2808.97z M3093.64,2804.55c-0.56,0-1.06-0.4-1.17-0.97
				c-0.12-0.64,0.3-1.27,0.95-1.39l7-1.32c0.65-0.12,1.27,0.3,1.39,0.95c0.12,0.64-0.3,1.27-0.95,1.39l-7,1.32
				C3093.78,2804.54,3093.71,2804.55,3093.64,2804.55z M2208.53,2804.4c-0.08,0-0.15-0.01-0.23-0.02l-6.99-1.39
				c-0.64-0.13-1.06-0.75-0.93-1.4c0.13-0.64,0.75-1.07,1.4-0.93l6.99,1.39c0.64,0.13,1.06,0.75,0.93,1.4
				C2209.58,2804.01,2209.09,2804.4,2208.53,2804.4z M3116.97,2800.14c-0.56,0-1.06-0.4-1.17-0.97c-0.12-0.64,0.3-1.27,0.95-1.39
				l7-1.32c0.65-0.12,1.27,0.3,1.39,0.95c0.12,0.64-0.3,1.27-0.95,1.39l-7,1.32C3117.12,2800.13,3117.04,2800.14,3116.97,2800.14z
				 M2185.24,2799.77c-0.08,0-0.15-0.01-0.23-0.02l-6.99-1.39c-0.64-0.13-1.06-0.75-0.93-1.4c0.13-0.64,0.74-1.07,1.4-0.93
				l6.99,1.39c0.64,0.13,1.06,0.75,0.93,1.4C2186.29,2799.38,2185.8,2799.77,2185.24,2799.77z M3140.3,2795.72
				c-0.56,0-1.06-0.4-1.17-0.97c-0.12-0.64,0.3-1.27,0.95-1.39l7-1.32c0.65-0.12,1.27,0.3,1.39,0.95c0.12,0.64-0.3,1.27-0.95,1.39
				l-7,1.32C3140.45,2795.72,3140.38,2795.72,3140.3,2795.72z M2161.95,2795.14c-0.08,0-0.15-0.01-0.23-0.02l-6.99-1.39
				c-0.64-0.13-1.06-0.75-0.93-1.4c0.13-0.64,0.75-1.06,1.4-0.93l6.99,1.39c0.64,0.13,1.06,0.75,0.93,1.4
				C2163,2794.75,2162.5,2795.14,2161.95,2795.14z M3163.64,2791.31c-0.56,0-1.06-0.4-1.17-0.97c-0.12-0.64,0.3-1.27,0.95-1.39
				l7-1.32c0.64-0.11,1.27,0.3,1.39,0.95c0.12,0.64-0.3,1.27-0.95,1.39l-7,1.32C3163.79,2791.3,3163.71,2791.31,3163.64,2791.31z
				 M2138.65,2790.51c-0.08,0-0.15-0.01-0.23-0.02l-6.99-1.39c-0.64-0.13-1.06-0.75-0.93-1.4c0.13-0.64,0.74-1.07,1.4-0.93
				l6.99,1.39c0.64,0.13,1.06,0.75,0.93,1.4C2139.71,2790.12,2139.21,2790.51,2138.65,2790.51z M3186.97,2786.89
				c-0.56,0-1.06-0.4-1.17-0.97c-0.12-0.64,0.3-1.27,0.95-1.39l7-1.33c0.64-0.12,1.26,0.3,1.39,0.95c0.12,0.64-0.3,1.27-0.95,1.39
				l-7,1.33C3187.12,2786.89,3187.05,2786.89,3186.97,2786.89z M2115.36,2785.88c-0.08,0-0.15-0.01-0.23-0.02l-6.99-1.39
				c-0.64-0.13-1.06-0.75-0.93-1.4c0.13-0.64,0.74-1.06,1.4-0.93l6.99,1.39c0.64,0.13,1.06,0.75,0.93,1.4
				C2116.41,2785.49,2115.92,2785.88,2115.36,2785.88z M3210.31,2782.48c-0.56,0-1.06-0.4-1.17-0.97c-0.12-0.64,0.3-1.27,0.95-1.39
				l7-1.33c0.64-0.12,1.27,0.3,1.39,0.95c0.12,0.64-0.3,1.27-0.95,1.39l-7,1.33C3210.46,2782.47,3210.38,2782.48,3210.31,2782.48z
				 M2092.07,2781.25c-0.08,0-0.15-0.01-0.23-0.02l-6.99-1.39c-0.64-0.13-1.06-0.75-0.93-1.4c0.13-0.64,0.75-1.07,1.4-0.93
				l6.99,1.39c0.64,0.13,1.06,0.75,0.93,1.4C2093.12,2780.86,2092.62,2781.25,2092.07,2781.25z M2068.78,2776.62
				c-0.08,0-0.15-0.01-0.23-0.02l-6.99-1.39c-0.64-0.13-1.06-0.75-0.93-1.4c0.13-0.64,0.74-1.06,1.4-0.93l6.99,1.39
				c0.64,0.13,1.06,0.75,0.93,1.4C2069.83,2776.23,2069.33,2776.62,2068.78,2776.62z M2045.48,2771.99c-0.08,0-0.15-0.01-0.23-0.02
				l-6.99-1.39c-0.64-0.13-1.06-0.75-0.93-1.4c0.13-0.64,0.75-1.07,1.4-0.93l6.99,1.39c0.64,0.13,1.06,0.75,0.93,1.4
				C2046.53,2771.6,2046.04,2771.99,2045.48,2771.99z M3220.77,2767.26C3220.77,2767.26,3220.76,2767.26,3220.77,2767.26
				c-0.66,0-1.19-0.54-1.19-1.19l0.01-4.3l0-2.82c0-0.66,0.53-1.19,1.18-1.19h0c0.65,0,1.19,0.53,1.19,1.18l0,2.82l-0.01,4.31
				C3221.95,2766.74,3221.42,2767.26,3220.77,2767.26z M2029.64,2760.92c-0.63,0-1.15-0.5-1.18-1.13c-0.11-2.29-0.22-4.66-0.33-7.12
				c-0.03-0.66,0.48-1.21,1.13-1.24c0.67-0.02,1.21,0.48,1.24,1.13c0.11,2.46,0.22,4.83,0.33,7.11c0.03,0.66-0.47,1.21-1.13,1.24
				C2029.68,2760.92,2029.66,2760.92,2029.64,2760.92z M3220.58,2743.52c-0.65,0-1.17-0.52-1.19-1.16c-0.05-2.37-0.1-4.74-0.16-7.11
				c-0.02-0.66,0.5-1.2,1.16-1.22c0.72-0.05,1.2,0.5,1.22,1.16c0.06,2.37,0.12,4.75,0.16,7.12c0.01,0.66-0.51,1.2-1.16,1.21
				C3220.6,2743.52,3220.59,2743.52,3220.58,2743.52z M2028.62,2737.19c-0.63,0-1.16-0.5-1.19-1.14l-0.27-7.12
				c-0.02-0.65,0.49-1.21,1.14-1.23c0.63-0.02,1.21,0.49,1.23,1.14l0.27,7.12c0.03,0.66-0.48,1.21-1.14,1.23
				C2028.65,2737.19,2028.64,2737.19,2028.62,2737.19z M3219.86,2719.79c-0.63,0-1.16-0.5-1.19-1.14c-0.1-2.37-0.2-4.73-0.32-7.09
				c-0.03-0.66,0.47-1.21,1.13-1.24c0.65-0.05,1.21,0.47,1.24,1.13c0.11,2.37,0.22,4.73,0.32,7.11c0.03,0.66-0.48,1.21-1.14,1.24
				C3219.89,2719.79,3219.88,2719.79,3219.86,2719.79z M2027.81,2713.45c-0.64,0-1.17-0.51-1.19-1.15l-0.21-7.13
				c-0.02-0.66,0.5-1.2,1.15-1.22c0.67,0.01,1.2,0.5,1.22,1.15l0.21,7.12c0.02,0.66-0.5,1.2-1.15,1.22
				C2027.83,2713.45,2027.82,2713.45,2027.81,2713.45z M3218.64,2696.09c-0.62,0-1.15-0.48-1.18-1.11c-0.15-2.38-0.3-4.74-0.46-7.1
				c-0.04-0.66,0.45-1.22,1.11-1.27c0.68-0.01,1.22,0.45,1.26,1.1c0.16,2.37,0.31,4.74,0.46,7.12c0.04,0.66-0.46,1.22-1.11,1.26
				C3218.69,2696.09,3218.66,2696.09,3218.64,2696.09z M2027.19,2689.7c-0.64,0-1.17-0.51-1.19-1.16l-0.14-7.13
				c-0.01-0.66,0.51-1.2,1.17-1.21c0.63-0.05,1.2,0.51,1.21,1.17l0.14,7.12c0.01,0.66-0.51,1.2-1.16,1.21
				C2027.21,2689.7,2027.2,2689.7,2027.19,2689.7z M3216.96,2672.39c-0.61,0-1.13-0.47-1.18-1.09c-0.19-2.37-0.39-4.74-0.59-7.1
				c-0.06-0.65,0.43-1.23,1.08-1.28c0.64-0.08,1.23,0.43,1.28,1.08c0.2,2.36,0.4,4.73,0.59,7.11c0.05,0.65-0.43,1.23-1.09,1.28
				C3217.02,2672.39,3216.99,2672.39,3216.96,2672.39z M2026.8,2665.95c-0.65,0-1.18-0.52-1.19-1.17l-0.08-7.13
				c-0.01-0.66,0.52-1.19,1.18-1.2c0,0,0.01,0,0.01,0c0.65,0,1.18,0.52,1.19,1.18l0.08,7.12c0.01,0.66-0.52,1.19-1.17,1.2
				C2026.81,2665.95,2026.8,2665.95,2026.8,2665.95z M3214.85,2648.73c-0.6,0-1.12-0.46-1.18-1.07c-0.23-2.37-0.47-4.73-0.71-7.08
				c-0.07-0.65,0.41-1.24,1.06-1.3c0.66-0.07,1.23,0.41,1.3,1.06c0.24,2.36,0.48,4.72,0.71,7.1c0.06,0.65-0.41,1.23-1.07,1.3
				C3214.92,2648.72,3214.88,2648.73,3214.85,2648.73z M2026.63,2642.2c-0.66,0-1.19-0.53-1.19-1.19l0-4.08l0-3.04
				c0-0.66,0.53-1.19,1.19-1.19h0c0.66,0,1.19,0.53,1.19,1.19l0,3.05l0,4.08C2027.82,2641.67,2027.29,2642.2,2026.63,2642.2
				C2026.63,2642.2,2026.63,2642.2,2026.63,2642.2z M3212.34,2625.1c-0.6,0-1.11-0.45-1.18-1.05c-0.27-2.37-0.55-4.73-0.83-7.07
				c-0.08-0.65,0.39-1.24,1.04-1.32c0.67-0.09,1.24,0.39,1.32,1.04c0.28,2.35,0.56,4.71,0.83,7.08c0.08,0.65-0.39,1.24-1.04,1.31
				C3212.43,2625.1,3212.38,2625.1,3212.34,2625.1z M2026.72,2618.46c0,0-0.01,0-0.01,0c-0.66-0.01-1.18-0.54-1.18-1.2
				c0.02-2.37,0.05-4.74,0.08-7.12c0.01-0.65,0.54-1.17,1.19-1.17c0,0,0.01,0,0.02,0c0.66,0.01,1.18,0.55,1.17,1.2
				c-0.03,2.38-0.06,4.75-0.08,7.11C2027.9,2617.93,2027.37,2618.46,2026.72,2618.46z M3209.44,2601.52c-0.59,0-1.1-0.44-1.18-1.03
				c-0.31-2.37-0.62-4.72-0.94-7.06c-0.09-0.65,0.37-1.25,1.02-1.34c0.67-0.09,1.25,0.37,1.34,1.02c0.32,2.34,0.63,4.7,0.94,7.07
				c0.09,0.65-0.37,1.25-1.02,1.33C3209.55,2601.51,3209.5,2601.52,3209.44,2601.52z M2027.08,2594.72c-0.01,0-0.02,0-0.03,0
				c-0.66-0.01-1.17-0.56-1.16-1.21c0.05-2.38,0.11-4.75,0.17-7.13c0.02-0.66,0.54-1.21,1.22-1.16c0.66,0.02,1.17,0.56,1.16,1.22
				c-0.06,2.37-0.12,4.75-0.17,7.12C2028.26,2594.21,2027.73,2594.72,2027.08,2594.72z M3206.19,2577.98
				c-0.58,0-1.09-0.43-1.17-1.02c-0.35-2.37-0.69-4.72-1.04-7.05c-0.1-0.65,0.35-1.25,1-1.35c0.65-0.09,1.25,0.35,1.35,1
				c0.35,2.33,0.7,4.68,1.04,7.05c0.09,0.65-0.35,1.25-1,1.35C3206.31,2577.98,3206.25,2577.98,3206.19,2577.98z M2027.77,2570.98
				c-0.02,0-0.03,0-0.04,0c-0.66-0.02-1.17-0.57-1.14-1.23c0.09-2.38,0.18-4.76,0.27-7.13c0.03-0.66,0.63-1.16,1.23-1.14
				c0.66,0.03,1.16,0.58,1.14,1.24c-0.1,2.37-0.19,4.75-0.27,7.12C2028.93,2570.47,2028.41,2570.98,2027.77,2570.98z
				 M3202.59,2554.5c-0.57,0-1.08-0.42-1.17-1c-0.38-2.37-0.76-4.72-1.15-7.03c-0.11-0.65,0.33-1.26,0.98-1.36
				c0.66-0.11,1.26,0.33,1.36,0.98c0.38,2.32,0.77,4.67,1.15,7.04c0.1,0.65-0.34,1.26-0.98,1.36
				C3202.72,2554.49,3202.66,2554.5,3202.59,2554.5z M2028.82,2547.23c-0.02,0-0.04,0-0.06,0c-0.66-0.03-1.16-0.59-1.12-1.25
				c0.13-2.38,0.26-4.76,0.4-7.14c0.04-0.66,0.59-1.16,1.25-1.12c0.66,0.04,1.15,0.6,1.12,1.25c-0.14,2.37-0.27,4.74-0.4,7.12
				C2029.98,2546.74,2029.45,2547.23,2028.82,2547.23z M3198.65,2531.06c-0.57,0-1.07-0.41-1.17-0.98
				c-0.42-2.38-0.83-4.71-1.25-7.01c-0.12-0.64,0.31-1.26,0.96-1.38c0.65-0.12,1.26,0.31,1.38,0.96c0.41,2.3,0.83,4.65,1.25,7.02
				c0.11,0.65-0.32,1.26-0.96,1.38C3198.79,2531.06,3198.72,2531.06,3198.65,2531.06z M2030.31,2523.51c-0.03,0-0.06,0-0.09,0
				c-0.65-0.05-1.15-0.62-1.1-1.27c0.17-2.38,0.35-4.75,0.54-7.11c0.05-0.65,0.61-1.12,1.28-1.09c0.65,0.05,1.14,0.63,1.09,1.28
				c-0.19,2.36-0.37,4.72-0.54,7.1C2031.45,2523.03,2030.93,2523.51,2030.31,2523.51z M3194.38,2507.69c-0.56,0-1.06-0.4-1.17-0.96
				c-0.45-2.39-0.9-4.72-1.35-7c-0.13-0.64,0.29-1.27,0.94-1.39c0.63-0.13,1.27,0.29,1.39,0.94c0.44,2.28,0.9,4.62,1.35,7.01
				c0.12,0.64-0.3,1.27-0.94,1.39C3194.53,2507.68,3194.45,2507.69,3194.38,2507.69z M2032.33,2499.84c-0.04,0-0.08,0-0.12-0.01
				c-0.65-0.06-1.13-0.64-1.07-1.3c0.23-2.38,0.48-4.75,0.73-7.1c0.07-0.65,0.64-1.12,1.31-1.05c0.65,0.07,1.12,0.65,1.05,1.31
				c-0.25,2.34-0.49,4.7-0.72,7.08C2033.45,2499.38,2032.93,2499.84,2032.33,2499.84z M3189.76,2484.38c-0.55,0-1.05-0.39-1.16-0.95
				c-0.5-2.42-0.98-4.75-1.46-6.98c-0.14-0.64,0.27-1.27,0.92-1.41c0.65-0.13,1.27,0.27,1.41,0.92c0.47,2.23,0.96,4.56,1.46,6.99
				c0.13,0.64-0.28,1.27-0.92,1.4C3189.92,2484.37,3189.84,2484.38,3189.76,2484.38z M2035,2476.24c-0.05,0-0.1,0-0.15-0.01
				c-0.65-0.08-1.11-0.68-1.02-1.33c0.31-2.38,0.63-4.74,0.96-7.08c0.09-0.65,0.69-1.09,1.34-1.01c0.65,0.09,1.1,0.69,1.01,1.34
				c-0.33,2.33-0.65,4.68-0.96,7.05C2036.1,2475.8,2035.59,2476.24,2035,2476.24z M3182.15,2463.7c-0.05,0-0.09,0-0.14-0.01
				c-2.29-0.27-4.65-0.53-7.07-0.8c-0.65-0.07-1.12-0.66-1.05-1.31c0.07-0.65,0.64-1.12,1.31-1.05c2.43,0.26,4.8,0.53,7.09,0.8
				c0.65,0.08,1.12,0.67,1.04,1.32C3183.25,2463.25,3182.74,2463.7,3182.15,2463.7z M3158.52,2461.24c-0.04,0-0.07,0-0.11,0
				c-2.32-0.21-4.68-0.43-7.09-0.64c-0.65-0.06-1.14-0.63-1.08-1.29c0.06-0.65,0.64-1.13,1.29-1.08c2.42,0.21,4.78,0.42,7.1,0.64
				c0.65,0.06,1.13,0.64,1.07,1.29C3159.65,2460.77,3159.13,2461.24,3158.52,2461.24z M3134.86,2459.24c-0.03,0-0.06,0-0.09,0
				c-2.33-0.18-4.7-0.36-7.1-0.53c-0.65-0.05-1.15-0.62-1.1-1.27c0.05-0.65,0.63-1.14,1.27-1.1c2.41,0.18,4.78,0.35,7.11,0.53
				c0.65,0.05,1.14,0.62,1.09,1.27C3135.99,2458.77,3135.47,2459.24,3134.86,2459.24z M3111.16,2457.57c-0.03,0-0.05,0-0.08,0
				l-7.11-0.45c-0.65-0.04-1.15-0.6-1.11-1.26c0.04-0.65,0.57-1.14,1.26-1.11l7.11,0.45c0.65,0.04,1.15,0.61,1.11,1.26
				C3112.31,2457.09,3111.78,2457.57,3111.16,2457.57z M3087.46,2456.13c-0.02,0-0.05,0-0.07,0l-7.11-0.4
				c-0.66-0.03-1.16-0.59-1.12-1.25c0.03-0.66,0.6-1.14,1.25-1.12l7.12,0.4c0.65,0.04,1.15,0.6,1.12,1.25
				C3088.61,2455.64,3088.08,2456.13,3087.46,2456.13z M3063.74,2454.87c-0.02,0-0.04,0-0.06,0l-7.11-0.35
				c-0.66-0.03-1.16-0.59-1.13-1.24c0.03-0.65,0.6-1.16,1.24-1.13l7.12,0.35c0.66,0.03,1.16,0.59,1.13,1.25
				C3064.89,2454.37,3064.37,2454.87,3063.74,2454.87z M3040.01,2453.75c-0.02,0-0.04,0-0.05,0l-7.12-0.31
				c-0.66-0.03-1.16-0.58-1.14-1.24c0.03-0.66,0.61-1.16,1.24-1.14l7.12,0.31c0.66,0.03,1.16,0.58,1.13,1.24
				C3041.17,2453.26,3040.65,2453.75,3040.01,2453.75z M3016.29,2452.76c-0.02,0-0.03,0-0.05,0l-7.12-0.28
				c-0.66-0.02-1.17-0.58-1.14-1.23c0.02-0.66,0.62-1.19,1.23-1.14l7.12,0.28c0.66,0.03,1.17,0.58,1.14,1.23
				C3017.45,2452.26,3016.92,2452.76,3016.29,2452.76z M2038.55,2452.75c-0.07,0-0.14-0.01-0.2-0.02c-0.65-0.11-1.08-0.73-0.97-1.37
				l0.4-2.24c0.36-2.05,2.05-3.5,4.11-3.52l0.62-0.01c0.72-0.09,1.2,0.51,1.21,1.17c0.01,0.66-0.51,1.2-1.17,1.21l-0.62,0.01
				c-0.92,0.01-1.64,0.64-1.8,1.57l-0.39,2.23C2039.61,2452.34,2039.11,2452.75,2038.55,2452.75z M2992.55,2451.88
				c-0.01,0-0.03,0-0.04,0l-7.12-0.25c-0.66-0.02-1.17-0.57-1.15-1.23c0.02-0.66,0.58-1.19,1.23-1.15l7.12,0.25
				c0.66,0.02,1.17,0.57,1.14,1.23C2993.71,2451.37,2993.19,2451.88,2992.55,2451.88z M2968.82,2451.08c-0.01,0-0.03,0-0.04,0
				l-7.12-0.22c-0.66-0.02-1.17-0.57-1.15-1.22c0.02-0.66,0.55-1.14,1.22-1.15l7.12,0.22c0.66,0.02,1.17,0.57,1.15,1.22
				C2969.98,2450.57,2969.45,2451.08,2968.82,2451.08z M2945.07,2450.36c-0.01,0-0.02,0-0.04,0l-7.12-0.2
				c-0.66-0.02-1.17-0.56-1.16-1.22c0.02-0.66,0.56-1.21,1.22-1.16l7.12,0.2c0.66,0.02,1.17,0.57,1.15,1.22
				C2946.24,2449.85,2945.71,2450.36,2945.07,2450.36z M2921.33,2449.71c-0.01,0-0.02,0-0.03,0l-7.12-0.18
				c-0.66-0.02-1.17-0.56-1.16-1.22c0.02-0.65,0.46-1.14,1.22-1.16l7.12,0.18c0.66,0.02,1.17,0.56,1.16,1.22
				C2922.5,2449.2,2921.97,2449.71,2921.33,2449.71z M2897.59,2449.13c-0.01,0-0.02,0-0.03,0l-7.12-0.17
				c-0.66-0.01-1.18-0.56-1.16-1.21c0.01-0.65,0.46-1.16,1.21-1.16l7.12,0.16c0.66,0.02,1.17,0.56,1.16,1.22
				C2898.76,2448.61,2898.23,2449.13,2897.59,2449.13z M2873.85,2448.59c-0.01,0-0.02,0-0.03,0l-7.12-0.15
				c-0.66-0.01-1.18-0.56-1.16-1.21c0.01-0.66,0.62-1.18,1.21-1.16l7.12,0.15c0.66,0.01,1.18,0.56,1.16,1.21
				C2875.02,2448.08,2874.49,2448.59,2873.85,2448.59z M2850.1,2448.11c-0.01,0-0.01,0-0.02,0l-7.12-0.13
				c-0.66-0.01-1.18-0.55-1.17-1.21c0.01-0.66,0.51-1.24,1.21-1.17l7.12,0.13c0.66,0.01,1.18,0.55,1.16,1.21
				C2851.27,2447.6,2850.75,2448.11,2850.1,2448.11z M2059.15,2447.75c-0.65,0-1.18-0.52-1.19-1.17c-0.01-0.66,0.52-1.19,1.17-1.2
				l7.13-0.09c0.56-0.02,1.19,0.52,1.2,1.17c0.01,0.66-0.52,1.19-1.17,1.2l-7.13,0.09
				C2059.16,2447.75,2059.15,2447.75,2059.15,2447.75z M2826.35,2447.68c-0.01,0-0.01,0-0.02,0l-7.12-0.12
				c-0.66-0.01-1.18-0.55-1.17-1.21c0.01-0.65,0.54-1.17,1.19-1.17c0.01,0,0.01,0,0.02,0l7.12,0.12c0.66,0.01,1.18,0.55,1.17,1.21
				C2827.53,2447.17,2827,2447.68,2826.35,2447.68z M2082.91,2447.47c-0.65,0-1.18-0.52-1.19-1.17c-0.01-0.66,0.52-1.19,1.17-1.2
				l7.13-0.08c0.67-0.07,1.19,0.52,1.2,1.17c0.01,0.66-0.52,1.19-1.17,1.2l-7.13,0.08
				C2082.92,2447.47,2082.91,2447.47,2082.91,2447.47z M2802.61,2447.3c-0.01,0-0.01,0-0.02,0l-7.12-0.11
				c-0.66-0.01-1.18-0.55-1.17-1.21c0.01-0.66,0.48-1.21,1.2-1.17l7.13,0.11c0.66,0.01,1.18,0.55,1.17,1.2
				C2803.79,2446.78,2803.26,2447.3,2802.61,2447.3z M2106.67,2447.21c-0.65,0-1.18-0.52-1.19-1.17c-0.01-0.66,0.52-1.19,1.17-1.2
				l7.13-0.08c0.73,0.02,1.19,0.52,1.2,1.18c0.01,0.66-0.52,1.19-1.18,1.2l-7.12,0.08
				C2106.68,2447.21,2106.68,2447.21,2106.67,2447.21z M2130.43,2446.96c-0.65,0-1.18-0.52-1.19-1.18c-0.01-0.66,0.52-1.19,1.18-1.2
				l7.13-0.07c0.73,0.05,1.19,0.52,1.2,1.18c0.01,0.66-0.52,1.19-1.18,1.2l-7.13,0.07
				C2130.44,2446.96,2130.43,2446.96,2130.43,2446.96z M2778.86,2446.95c0,0-0.01,0-0.02,0l-7.12-0.1c-0.66-0.01-1.18-0.55-1.17-1.2
				c0.01-0.65,0.54-1.17,1.19-1.17c0,0,0.01,0,0.02,0l7.12,0.1c0.66,0.01,1.18,0.55,1.17,1.2
				C2780.04,2446.43,2779.51,2446.95,2778.86,2446.95z M2154.19,2446.73c-0.65,0-1.18-0.52-1.19-1.18c-0.01-0.66,0.52-1.19,1.18-1.2
				l7.13-0.07c0.73,0.06,1.19,0.52,1.2,1.18c0.01,0.66-0.52,1.19-1.18,1.2l-7.13,0.07
				C2154.2,2446.73,2154.19,2446.73,2154.19,2446.73z M2755.11,2446.64c0,0-0.01,0-0.01,0l-7.12-0.09c-0.66-0.01-1.18-0.55-1.17-1.2
				c0.01-0.66,0.52-1.23,1.2-1.17l7.13,0.09c0.66,0.01,1.18,0.55,1.17,1.2C2756.29,2446.11,2755.76,2446.64,2755.11,2446.64z
				 M2177.95,2446.52c-0.65,0-1.18-0.53-1.19-1.18c-0.01-0.66,0.52-1.19,1.18-1.2l7.13-0.06c0,0,0.01,0,0.01,0
				c0.65,0,1.18,0.53,1.19,1.18c0.01,0.66-0.52,1.19-1.18,1.2l-7.13,0.06C2177.95,2446.52,2177.95,2446.52,2177.95,2446.52z
				 M2731.36,2446.36c0,0-0.01,0-0.01,0l-7.12-0.08c-0.66-0.01-1.18-0.54-1.18-1.2c0.01-0.66,0.58-1.21,1.2-1.17l7.12,0.08
				c0.66,0.01,1.18,0.54,1.17,1.2C2732.55,2445.84,2732.02,2446.36,2731.36,2446.36z M2201.7,2446.32c-0.65,0-1.18-0.53-1.19-1.18
				c-0.01-0.66,0.52-1.19,1.18-1.2l7.13-0.06c0,0,0.01,0,0.01,0c0.65,0,1.18,0.53,1.19,1.18c0,0.66-0.52,1.19-1.18,1.2l-7.12,0.06
				C2201.71,2446.32,2201.71,2446.32,2201.7,2446.32z M2225.46,2446.13c-0.65,0-1.18-0.53-1.19-1.18c0-0.66,0.52-1.19,1.18-1.2
				l7.13-0.05c0,0,0.01,0,0.01,0c0.65,0,1.18,0.53,1.19,1.18c0,0.66-0.52,1.19-1.18,1.2L2225.46,2446.13
				C2225.47,2446.13,2225.46,2446.13,2225.46,2446.13z M2707.62,2446.11c0,0-0.01,0-0.01,0l-7.12-0.07
				c-0.66-0.01-1.18-0.54-1.18-1.2c0.01-0.65,0.54-1.18,1.19-1.18c0,0,0.01,0,0.01,0l7.12,0.07c0.66,0.01,1.18,0.54,1.18,1.2
				C2708.8,2445.59,2708.27,2446.11,2707.62,2446.11z M2249.22,2445.96c-0.65,0-1.18-0.53-1.19-1.18c0-0.66,0.52-1.19,1.18-1.2
				l7.13-0.05c0.64-0.06,1.19,0.52,1.2,1.18c0,0.66-0.52,1.19-1.18,1.2L2249.22,2445.96
				C2249.22,2445.96,2249.22,2445.96,2249.22,2445.96z M2683.87,2445.9c0,0-0.01,0-0.01,0l-7.12-0.06c-0.66,0-1.18-0.54-1.18-1.2
				c0-0.65,0.54-1.18,1.19-1.18c0,0,0.01,0,0.01,0l7.12,0.06c0.66,0.01,1.18,0.54,1.18,1.2
				C2685.05,2445.38,2684.52,2445.9,2683.87,2445.9z M2272.97,2445.8c-0.65,0-1.18-0.53-1.19-1.18c0-0.66,0.52-1.19,1.18-1.2
				l7.13-0.04c0,0,0,0,0,0c0.66,0,1.19,0.53,1.19,1.18c0,0.66-0.52,1.19-1.18,1.19L2272.97,2445.8
				C2272.98,2445.8,2272.98,2445.8,2272.97,2445.8z M2660.12,2445.72C2660.12,2445.72,2660.11,2445.72,2660.12,2445.72l-7.13-0.05
				c-0.66,0-1.18-0.54-1.18-1.2c0-0.66,0.58-1.27,1.2-1.18l7.12,0.05c0.66,0,1.18,0.54,1.18,1.2
				C2661.3,2445.19,2660.77,2445.72,2660.12,2445.72z M2296.73,2445.66c-0.65,0-1.18-0.53-1.19-1.18c0-0.66,0.52-1.19,1.18-1.19
				l7.13-0.04c0,0,0,0,0.01,0c0.65,0,1.18,0.53,1.19,1.18c0,0.66-0.53,1.19-1.18,1.19L2296.73,2445.66
				C2296.73,2445.66,2296.73,2445.66,2296.73,2445.66z M2636.37,2445.56C2636.37,2445.56,2636.37,2445.56,2636.37,2445.56
				l-7.13-0.04c-0.66,0-1.18-0.54-1.18-1.19c0-0.66,0.54-1.15,1.19-1.18l7.12,0.04c0.66,0,1.18,0.54,1.18,1.19
				C2637.55,2445.03,2637.02,2445.56,2636.37,2445.56z M2320.48,2445.53c-0.65,0-1.18-0.53-1.19-1.18c0-0.66,0.53-1.19,1.18-1.19
				l7.13-0.03c0,0,0,0,0,0c0.65,0,1.19,0.53,1.19,1.18c0,0.66-0.53,1.19-1.18,1.19L2320.48,2445.53L2320.48,2445.53z
				 M2612.62,2445.43C2612.62,2445.43,2612.62,2445.43,2612.62,2445.43l-7.13-0.03c-0.66,0-1.19-0.54-1.18-1.19
				c0-0.65,0.53-1.18,1.19-1.18h0.01l7.12,0.03c0.66,0,1.19,0.54,1.18,1.19C2613.8,2444.9,2613.27,2445.43,2612.62,2445.43z
				 M2344.24,2445.42c-0.65,0-1.19-0.53-1.19-1.18c0-0.66,0.53-1.19,1.18-1.19l7.13-0.03c0,0,0,0,0,0c0.66,0,1.19,0.53,1.19,1.18
				c0,0.66-0.53,1.19-1.18,1.19L2344.24,2445.42L2344.24,2445.42z M2368,2445.33c-0.65,0-1.19-0.53-1.19-1.18
				c0-0.66,0.53-1.19,1.18-1.19l7.13-0.02c0,0,0,0,0,0c0.66,0,1.19,0.53,1.19,1.18c0,0.66-0.53,1.19-1.18,1.19L2368,2445.33
				C2368,2445.33,2368,2445.33,2368,2445.33z M2588.87,2445.32L2588.87,2445.32l-7.13-0.03c-0.66,0-1.19-0.54-1.18-1.19
				c0-0.65,0.53-1.18,1.19-1.18h0l7.12,0.03c0.66,0,1.19,0.54,1.18,1.19C2590.06,2444.79,2589.53,2445.32,2588.87,2445.32z
				 M2391.75,2445.25c-0.65,0-1.19-0.53-1.19-1.18c0-0.66,0.53-1.19,1.18-1.19l7.13-0.02h0c0.65,0,1.19,0.53,1.19,1.18
				c0,0.66-0.53,1.19-1.18,1.19L2391.75,2445.25L2391.75,2445.25z M2565.12,2445.24L2565.12,2445.24l-7.13-0.02
				c-0.66,0-1.19-0.53-1.18-1.19c0-0.66,0.53-1.18,1.19-1.18h0l7.12,0.02c0.66,0,1.19,0.53,1.18,1.19
				C2566.31,2444.71,2565.78,2445.24,2565.12,2445.24z M2415.5,2445.19c-0.65,0-1.19-0.53-1.19-1.19c0-0.66,0.53-1.19,1.19-1.19
				l7.13-0.01h0c0.66,0,1.19,0.53,1.19,1.19c0,0.66-0.53,1.19-1.19,1.19L2415.5,2445.19
				C2415.51,2445.19,2415.51,2445.19,2415.5,2445.19z M2541.37,2445.18L2541.37,2445.18l-7.13-0.01c-0.66,0-1.19-0.53-1.19-1.19
				c0-0.66,0.53-1.19,1.19-1.19h0l7.13,0.01c0.66,0,1.19,0.53,1.19,1.19C2542.56,2444.65,2542.03,2445.18,2541.37,2445.18z
				 M2439.26,2445.15c-0.66,0-1.19-0.53-1.19-1.19s0.53-1.19,1.19-1.19l7.13-0.01c0.66,0,1.19,0.53,1.19,1.19
				c0,0.66-0.53,1.19-1.19,1.19L2439.26,2445.15L2439.26,2445.15z M2517.62,2445.14L2517.62,2445.14l-7.13-0.01
				c-0.66,0-1.19-0.53-1.19-1.19c0-0.66,0.53-1.19,1.19-1.19h0l7.13,0.01c0.66,0,1.19,0.53,1.19,1.19
				C2518.81,2444.61,2518.28,2445.14,2517.62,2445.14z M2463.02,2445.12c-0.66,0-1.19-0.53-1.19-1.19c0-0.66,0.53-1.19,1.19-1.19
				l7.11,0c0.66,0,1.19,0.53,1.19,1.19c0,0.65-0.53,1.19-1.19,1.19L2463.02,2445.12z M2493.87,2445.12L2493.87,2445.12l-7.12,0
				c-0.66,0-1.19-0.53-1.19-1.19c0-0.66,0.53-1.19,1.19-1.19l7.12,0c0.66,0,1.19,0.53,1.19,1.19
				C2495.06,2444.59,2494.53,2445.12,2493.87,2445.12z"/>
			<path class="st16" d="M2714.66,2990.37h-155.68c-20.4,0-37.58-15.18-40-35.34l-17.99-149.8c-2.87-23.86,15.86-44.86,40-44.86
				h187.02c23.66,0,42.22,20.19,40.13,43.64l-13.36,149.8C2752.94,2974.51,2735.53,2990.37,2714.66,2990.37z"/>
			<defs>
				<filter id="Adobe_OpacityMaskFilter" filterUnits="userSpaceOnUse" x="2532.66" y="2787.76" width="203.68" height="175.06">
					<feFlood  style="flood-color:white;flood-opacity:1" result="back"/>
					<feBlend  in="SourceGraphic" in2="back" mode="normal"/>
				</filter>
			</defs>
			<mask maskUnits="userSpaceOnUse" x="2532.66" y="2787.76" width="203.68" height="175.06" id="SVGID_7_">
				<g class="st17">
					<defs>
						
							<filter id="Adobe_OpacityMaskFilter_1_" filterUnits="userSpaceOnUse" x="2532.66" y="2787.76" width="203.68" height="175.06">
							<feFlood  style="flood-color:white;flood-opacity:1" result="back"/>
							<feBlend  in="SourceGraphic" in2="back" mode="normal"/>
						</filter>
					</defs>
					<mask maskUnits="userSpaceOnUse" x="2532.66" y="2787.76" width="203.68" height="175.06" id="SVGID_7_">
						<g class="st18">
						</g>
					</mask>
					<linearGradient id="SVGID_8_" gradientUnits="userSpaceOnUse" x1="2532.6633" y1="2875.2908" x2="2736.3406" y2="2875.2908">
						<stop  offset="0" style="stop-color:#FFFFFF"/>
						<stop  offset="1" style="stop-color:#000000"/>
					</linearGradient>
					<path class="st19" d="M2695.51,2962.82h-118.49c-15.53,0-28.6-11.55-30.45-26.9l-13.69-114.02
						c-2.18-18.16,12.07-34.14,30.45-34.14h142.34c18,0,32.13,15.37,30.54,33.22L2726.05,2935
						C2724.65,2950.75,2711.39,2962.82,2695.51,2962.82z"/>
				</g>
			</mask>
			<path class="st20" d="M2695.51,2962.82h-118.49c-15.53,0-28.6-11.55-30.45-26.9l-13.69-114.02
				c-2.18-18.16,12.07-34.14,30.45-34.14h142.34c18,0,32.13,15.37,30.54,33.22L2726.05,2935
				C2724.65,2950.75,2711.39,2962.82,2695.51,2962.82z"/>
		</g>
		<g>
			
				<linearGradient id="SVGID_9_" gradientUnits="userSpaceOnUse" x1="18304.1309" y1="2362.2214" x2="17959.1953" y2="2559.106" gradientTransform="matrix(-1 0 0 1 19947.5723 0)">
				<stop  offset="0" style="stop-color:#F9B776"/>
				<stop  offset="1" style="stop-color:#F47960"/>
			</linearGradient>
			<path class="st21" d="M1695.88,2683.19c0.41-0.16,219.2-383.31,248.76-419.37c4.97-6.06,12.67-9.15,20.46-8.22l61.07,7.28
				l71.74,155.2l-119.52-69.61c11.83,81.79-141.71,203.35-194.37,247.7c-5.34,4.5-5.78,12.56-0.96,17.62l21.02,22.01
				c-34.51,34.98-74.34,57.45-119.29,67.84L1695.88,2683.19z"/>
			
				<linearGradient id="SVGID_10_" gradientUnits="userSpaceOnUse" x1="-8219.7754" y1="-3597.7634" x2="-8246.2549" y2="-3191.7454" gradientTransform="matrix(0.8974 -0.4412 0.4412 0.8974 10652.2939 2161.1482)">
				<stop  offset="0" style="stop-color:#CB236D"/>
				<stop  offset="1" style="stop-color:#4C246D"/>
			</linearGradient>
			<path class="st22" d="M1791.93,2623.92c0,0,13.42,4.33,17.96,16.28c2.17,5.72-0.17,12.19-5.14,15.75
				c-22.09,15.83-94.97,66.93-128.6,76.94c-2.76,0.82-5.38-1.67-4.76-4.48c1.73-7.81,7.31-23.41,25.29-46.25l-1.61,3.26
				c-2.04,4.13,2.46,8.43,6.47,6.17C1724.03,2678.89,1769.85,2651.1,1791.93,2623.92z"/>
			
				<linearGradient id="SVGID_11_" gradientUnits="userSpaceOnUse" x1="18270.7637" y1="2411.3228" x2="19450.9648" y2="1672.4989" gradientTransform="matrix(-1 0 0 1 19947.5723 0)">
				<stop  offset="0" style="stop-color:#F9B776"/>
				<stop  offset="1" style="stop-color:#F47960"/>
			</linearGradient>
			<path class="st23" d="M1781.1,2777.23c0.37-0.24,33.19-79.32,33.56-79.56c30.1-183.24,103.53-340.18,125.18-381.47
				c3.64-6.95,10.56-11.53,18.37-12.2l61.28-5.23l101.67,137.47l-131.13-43.98c28.13,77.71-97.63,227.82-140.22,281.91
				c-4.32,5.49-3.12,13.47,2.63,17.45l25.04,17.3c-26.72,41.24-61.18,71.3-103.09,90.57L1781.1,2777.23z"/>
			
				<linearGradient id="SVGID_12_" gradientUnits="userSpaceOnUse" x1="-6715.9551" y1="-5896.7661" x2="-6742.4326" y2="-5490.7744" gradientTransform="matrix(0.7895 -0.6137 0.6137 0.7895 10669.8828 3191.1018)">
				<stop  offset="0" style="stop-color:#CB236D"/>
				<stop  offset="1" style="stop-color:#4C246D"/>
			</linearGradient>
			<path class="st24" d="M1863.17,2699.75c0,0,14.02,1.53,20.88,12.31c3.29,5.16,2.3,11.97-1.85,16.47
				c-18.43,19.97-79.46,84.76-110.37,101.37c-2.53,1.36-5.61-0.55-5.57-3.43c0.11-8,2.42-24.41,15.41-50.41l-0.92,3.52
				c-1.16,4.46,4.11,7.76,7.58,4.73C1807.8,2767.32,1847.04,2730.84,1863.17,2699.75z"/>
			<g>
				
					<linearGradient id="SVGID_13_" gradientUnits="userSpaceOnUse" x1="-13885.3711" y1="24606.6348" x2="-14323.1689" y2="25015.7246" gradientTransform="matrix(-1 0 0 1 12115.873 0)">
					<stop  offset="0" style="stop-color:#2B3582"/>
					<stop  offset="1" style="stop-color:#150E42"/>
				</linearGradient>
				<path class="st25" d="M2306.33,2269.82c0,0,55.43,82.45,59.98,120.06c4.55,37.61-15.33,50.62-73.35,55.41
					c-172.66,14.27-257.77-37.47-257.77-37.47c-11.81-75.31-20.22-94.46-118.86-135.41c0,0,124.77,9.91,149.87,0.16
					C2091.32,2262.82,2306.33,2269.82,2306.33,2269.82z"/>
			</g>
			<g>
				
					<linearGradient id="SVGID_14_" gradientUnits="userSpaceOnUse" x1="-11301.4961" y1="-336.5112" x2="-11216.6748" y2="-123.7403" gradientTransform="matrix(0.9446 -0.3283 0.3283 0.9446 12812.0361 -1699.1722)">
					<stop  offset="0" style="stop-color:#2B3582"/>
					<stop  offset="1" style="stop-color:#150E42"/>
				</linearGradient>
				<path class="st26" d="M2085.28,1807.88c0,0,38.61-45.68,79.65,10.37c7.43,10.15,35.99,1.78,46.45,23.02
					c5.4,10.97,17.08,17.2,29.1,14.98c29.95-5.52,78.91-5.99,103.08,40.95c18.45,35.83,4.21,56.79-14.24,68.75
					c-13.55,8.78-18.38,26.6-10.19,40.51c7.86,13.34,9.33,31.41-10.95,53.15c-45.46,48.72-135.46-30.92-135.46-30.92l-71.45-168.85
					L2085.28,1807.88z"/>
				
					<linearGradient id="SVGID_15_" gradientUnits="userSpaceOnUse" x1="17910.0059" y1="1986.2344" x2="17096.8594" y2="2770.5989" gradientTransform="matrix(-1 0 0 1 19947.5723 0)">
					<stop  offset="0" style="stop-color:#FDF53F"/>
					<stop  offset="1" style="stop-color:#D93C65"/>
				</linearGradient>
				<path class="st27" d="M2156.41,2258.9c0,0-64.55-61.47-96.33-102.18c-17.18-22.01-22.57-50.98-14.63-77.74
					c14.51-48.88,40.29-99.5,42.64-107.38c3.6-12.08,75.98-11.57,75.98-11.57s142.43,92.44,198.39,249.02l-62.85,19.57
					c0,0-37.19-62.39-73.93-102.06c0,0,63.58,83.99,65.82,118.38L2156.41,2258.9z"/>
				
					<linearGradient id="SVGID_16_" gradientUnits="userSpaceOnUse" x1="-9303.5254" y1="2248.7349" x2="-8959.918" y2="2248.7349" gradientTransform="matrix(1 0 0 1 11551.1094 0)">
					<stop  offset="0" style="stop-color:#F9B776"/>
					<stop  offset="1" style="stop-color:#F47960"/>
				</linearGradient>
				<path class="st28" d="M2033.42,2283.16l48.5-52.77l56.02,15.08c0,0,65.31,10.12,102.69,0c37.38-10.12,37.38-10.12,37.38-10.12
					l84.47-26.3l13.27,37.49c3.37,9.52-0.02,20.09-8.25,25.93c-7.31,5.19-15.87,10.9-21.33,13.29
					c-11.12,4.87-256.24,1.54-256.24,1.54L2033.42,2283.16z"/>
				
					<linearGradient id="SVGID_17_" gradientUnits="userSpaceOnUse" x1="-11222.8809" y1="1177.8804" x2="-11206.084" y2="1054.998" gradientTransform="matrix(0.9974 -0.0717 0.0717 0.9974 13216.9805 105.0094)">
					<stop  offset="0" style="stop-color:#F9B776"/>
					<stop  offset="1" style="stop-color:#F47960"/>
				</linearGradient>
				<path class="st29" d="M2114.34,1873.01l48.65,90.46c-3.21,19.75-52.95,20.3-60.63,8.51c-0.78-1.2-1.23-2.59-1.53-3.99
					l-29.1-60.44c-1.25-5.89,14.91-25.75,20.23-28.58l19.34-10.29C2118.74,1864.71,2087.67,1864.4,2114.34,1873.01z"/>
				<g>
					
						<linearGradient id="SVGID_18_" gradientUnits="userSpaceOnUse" x1="-10016.2588" y1="-3833.0269" x2="-9858.1055" y2="-4114.4868" gradientTransform="matrix(0.5458 -0.8379 0.8379 0.5458 10797.9961 -4320.769)">
						<stop  offset="0" style="stop-color:#F9B776"/>
						<stop  offset="1" style="stop-color:#F47960"/>
					</linearGradient>
					<path class="st30" d="M2015.89,1851.78c0,0-5.49,30.56,18.53,69.42c24.02,38.86,47.94,37.1,60.09,23.25
						c12.15-13.86,26.71-36.94,20.09-75.7C2107.97,1829.99,2024.18,1812.8,2015.89,1851.78z"/>
					
						<linearGradient id="SVGID_19_" gradientUnits="userSpaceOnUse" x1="-9982.249" y1="-4078.1345" x2="-9903.1729" y2="-3879.7739" gradientTransform="matrix(0.5458 -0.8379 0.8379 0.5458 10797.9961 -4320.769)">
						<stop  offset="0" style="stop-color:#2B3582"/>
						<stop  offset="1" style="stop-color:#150E42"/>
					</linearGradient>
					<path class="st31" d="M2085.52,1872.96c0,0-38.9-51.09-68.76-6.55l0.5,15.39c0,0-38.83-1.82-34.62-37.61
						c4.21-35.79,35.91-60.24,79.87-48.01c43.95,12.23,69.63,26.16,74.6,56.67c4.96,30.52-19.95,25.53-19.95,25.53
						s-9.52-21.06-21.01-22.49c-11.49-1.44-7.34,15.22-7.34,15.22L2085.52,1872.96z"/>
					
						<linearGradient id="SVGID_20_" gradientUnits="userSpaceOnUse" x1="-9982.5928" y1="-3814.113" x2="-9824.4404" y2="-4095.571" gradientTransform="matrix(0.5458 -0.8379 0.8379 0.5458 10797.9961 -4320.769)">
						<stop  offset="0" style="stop-color:#F9B776"/>
						<stop  offset="1" style="stop-color:#F47960"/>
					</linearGradient>
					<path class="st32" d="M2094.44,1871.6c0,0-20.15-26.15-1.81-31.57c18.34-5.43,17.66,25.62,16.46,37.17L2094.44,1871.6z"/>
				</g>
			</g>
			<g>
				<linearGradient id="SVGID_21_" gradientUnits="userSpaceOnUse" x1="2225.8198" y1="1731.7531" x2="2071.5134" y2="2334.624">
					<stop  offset="0" style="stop-color:#2B3582"/>
					<stop  offset="1" style="stop-color:#150E42"/>
				</linearGradient>
				<path class="st33" d="M2193.98,2304.04c-0.17,0.01-0.34,0.01-0.51,0.01l-223.1-0.24c-5.51,0-9.98-4.48-9.98-10
					c0.01-5.52,4.5-10.07,10-9.98l223.1,0.24c5.52,0,9.98,4.48,9.98,10C2203.45,2299.42,2199.25,2303.78,2193.98,2304.04z"/>
				<linearGradient id="SVGID_22_" gradientUnits="userSpaceOnUse" x1="1755.9329" y1="2089.0342" x2="2017.8943" y2="2293.5793">
					<stop  offset="0" style="stop-color:#2B3582"/>
					<stop  offset="1" style="stop-color:#150E42"/>
				</linearGradient>
				<path class="st34" d="M1769.81,2101.48h185.8c13.71,0,26.18,7.91,32.03,20.31l85.89,182.13h-230.9
					c-8.83,0-16.77-5.4-20.02-13.61l-66.61-168.54C1752.16,2112.04,1759.34,2101.48,1769.81,2101.48z"/>
				<linearGradient id="SVGID_23_" gradientUnits="userSpaceOnUse" x1="2014.3824" y1="2320.4543" x2="1838.5453" y2="2153.5881">
					<stop  offset="0" style="stop-color:#53D8FF"/>
					<stop  offset="1" style="stop-color:#3840F7"/>
				</linearGradient>
				<path class="st35" d="M1900.71,2194.87c4.03,12.51,1.05,24.66-6.64,27.13c-7.7,2.48-17.2-5.66-21.22-18.17
					c-4.03-12.51-1.05-24.66,6.64-27.13C1887.18,2174.23,1896.68,2182.36,1900.71,2194.87z"/>
			</g>
		</g>
		<g>
			<g>
				<g class="st36">
					<path class="st37" d="M2002.51,1000.66c-4.64,0-8.62-3.51-9.11-8.22c-1.08-10.31-1.73-20.82-1.93-31.23
						c-0.1-5.07,3.93-9.25,9-9.35c0.06,0,0.12,0,0.18,0c4.99,0,9.08,3.99,9.17,9c0.19,9.9,0.8,19.88,1.83,29.67
						c0.53,5.04-3.13,9.56-8.17,10.08C2003.15,1000.65,2002.83,1000.66,2002.51,1000.66z M2003.1,910.48
						c-0.36,0-0.72-0.02-1.09-0.05c-5.03-0.47-8.63-4.07-8.04-8.03c1.22-8.15,2.9-16.34,4.99-24.34c1.02-3.91,5.85-6.43,10.83-5.63
						c4.96,0.81,8.16,4.63,7.14,8.54c-1.98,7.6-3.58,15.38-4.74,23.13C2011.65,907.77,2007.68,910.48,2003.1,910.48z
						 M2021.28,842.91c-1.02,0-2.06-0.17-3.08-0.53c-4.77-1.7-7.27-6.95-5.56-11.72c3.48-9.78,7.44-19.54,11.75-29
						c2.11-4.61,7.55-6.63,12.16-4.54c4.61,2.1,6.64,7.55,4.54,12.16c-4.1,8.98-7.85,18.24-11.16,27.53
						C2028.58,840.57,2025.05,842.91,2021.28,842.91z M2056.4,771.1c-1.69,0-3.4-0.47-4.92-1.44c-4.27-2.72-5.53-8.4-2.8-12.67
						c5.59-8.76,11.63-17.39,17.94-25.64c3.08-4.02,8.84-4.78,12.86-1.71c4.02,3.08,4.79,8.84,1.71,12.86
						c-6,7.84-11.73,16.03-17.04,24.36C2062.4,769.61,2059.43,771.1,2056.4,771.1z M2106.66,708.93c-2.37,0-4.73-0.91-6.53-2.73
						c-3.56-3.61-3.53-9.42,0.08-12.97c7.38-7.29,15.17-14.36,23.16-21.02c3.89-3.25,9.68-2.72,12.92,1.17
						c3.24,3.89,2.72,9.68-1.17,12.92c-7.6,6.33-15.01,13.05-22.02,19.98C2111.32,708.05,2108.99,708.93,2106.66,708.93z
						 M2169.42,659.43c-3.07,0-6.06-1.53-7.8-4.33c-2.68-4.3-1.36-9.96,2.95-12.64c8.82-5.48,17.99-10.66,27.24-15.38
						c4.52-2.3,10.04-0.51,12.34,4.01c2.3,4.51,0.51,10.04-4.01,12.34c-8.8,4.48-17.5,9.4-25.88,14.61
						C2172.75,658.98,2171.07,659.43,2169.42,659.43z M2505.64,637.58c-1.27,0-2.56-0.27-3.79-0.82
						c-8.97-4.08-18.25-7.82-27.56-11.12c-4.78-1.69-7.28-6.94-5.59-11.71c1.69-4.78,6.93-7.28,11.71-5.59
						c9.81,3.47,19.58,7.41,29.03,11.71c4.61,2.1,6.65,7.54,4.56,12.15C2512.46,635.58,2509.13,637.58,2505.64,637.58z
						 M2241.54,625.08c-3.81,0-7.36-2.39-8.67-6.19c-1.65-4.79,0.89-10.01,5.68-11.67c9.82-3.39,19.9-6.39,29.98-8.92
						c4.92-1.21,9.9,1.75,11.14,6.66c1.23,4.91-1.75,9.9-6.66,11.14c-9.57,2.4-19.14,5.25-28.47,8.47
						C2243.54,624.92,2242.53,625.08,2241.54,625.08z M2429.61,612.93c-0.61,0-1.22-0.06-1.84-0.18
						c-9.67-1.97-19.55-3.54-29.36-4.68c-5.03-0.59-8.64-5.14-8.05-10.18c0.59-5.03,5.14-8.66,10.18-8.05
						c10.33,1.2,20.73,2.86,30.9,4.93c4.97,1.01,8.17,5.86,7.16,10.82C2437.71,609.93,2433.88,612.93,2429.61,612.93z
						 M2319.52,607.71c-4.63,0-8.61-3.49-9.11-8.2c-0.54-5.04,3.11-9.56,8.15-10.1c10.32-1.1,20.82-1.77,31.22-1.99
						c0.06,0,0.13,0,0.2,0c4.98,0,9.06,3.98,9.17,8.98c0.11,5.07-3.91,9.26-8.98,9.37c-9.88,0.21-19.85,0.85-29.66,1.89
						C2320.18,607.69,2319.85,607.71,2319.52,607.71z"/>
					<path class="st37" d="M2561.65,669.43c-1.81,0-3.63-0.53-5.23-1.64c-3.88-2.7-7.89-5.37-11.9-7.92
						c-4.27-2.72-5.53-8.39-2.81-12.67c2.72-4.28,8.4-5.54,12.67-2.81c4.22,2.69,8.44,5.49,12.52,8.33
						c4.16,2.89,5.19,8.61,2.3,12.77C2567.41,668.06,2564.55,669.43,2561.65,669.43z"/>
				</g>
				<g class="st36">
					<path class="st37" d="M2710.71,906.15c-4.43,0-8.33-3.21-9.05-7.72c-0.75-4.67-1.61-9.4-2.55-14.07
						c-1.01-4.97,2.2-9.81,7.17-10.82c4.99-1.01,9.81,2.2,10.82,7.17c0.99,4.91,1.9,9.9,2.69,14.81c0.8,5-2.61,9.71-7.61,10.51
						C2711.68,906.11,2711.19,906.15,2710.71,906.15z"/>
					<path class="st37" d="M2358.25,1320.31c-4.22,0-8.46-0.07-12.71-0.22c-5.06-0.17-9.03-4.42-8.86-9.48
						c0.17-5.06,4.44-9.05,9.48-8.86c9.82,0.33,19.62,0.26,29.26-0.21c5.07-0.24,9.37,3.65,9.61,8.71c0.25,5.06-3.65,9.37-8.72,9.62
						C2370.35,1320.17,2364.27,1320.31,2358.25,1320.31z M2297.35,1315.16c-0.51,0-1.03-0.04-1.56-0.13
						c-10.09-1.72-20.22-3.9-30.11-6.46c-4.9-1.27-7.85-6.28-6.58-11.18c1.27-4.91,6.29-7.87,11.18-6.58
						c9.39,2.43,19.01,4.49,28.6,6.13c4.99,0.85,8.35,5.59,7.5,10.59C2305.62,1312.01,2301.74,1315.16,2297.35,1315.16z
						 M2424.26,1314.17c-4.33,0-8.18-3.07-9.01-7.48c-0.94-4.98,2.34-9.78,7.32-10.72c9.53-1.79,19.1-4.02,28.47-6.62
						c4.89-1.35,9.94,1.51,11.3,6.39c1.35,4.88-1.51,9.94-6.39,11.3c-9.87,2.74-19.95,5.08-29.99,6.97
						C2425.39,1314.12,2424.82,1314.17,2424.26,1314.17z M2221.72,1293.45c-1.17,0-2.35-0.23-3.49-0.7
						c-9.46-3.9-18.86-8.24-27.95-12.92c-4.5-2.32-6.28-7.85-3.96-12.35c2.32-4.51,7.85-6.28,12.36-3.96
						c8.63,4.44,17.56,8.57,26.54,12.27c4.69,1.93,6.92,7.29,4.99,11.98C2228.75,1291.3,2225.33,1293.45,2221.72,1293.45z
						 M2499.43,1291.16c-3.55,0-6.93-2.07-8.43-5.54c-2.01-4.65,0.13-10.05,4.78-12.06c8.89-3.84,17.75-8.12,26.32-12.72
						c4.47-2.39,10.03-0.72,12.42,3.75c2.39,4.47,0.71,10.02-3.75,12.42c-9.02,4.84-18.35,9.34-27.71,13.39
						C2501.88,1290.91,2500.64,1291.16,2499.43,1291.16z M2567.73,1252.21c-2.84,0-5.63-1.31-7.43-3.78
						c-2.98-4.1-2.07-9.84,2.03-12.82c7.86-5.71,15.57-11.82,22.92-18.16c3.83-3.32,9.63-2.89,12.94,0.95
						c3.31,3.84,2.88,9.63-0.96,12.94c-7.73,6.67-15.85,13.1-24.12,19.11C2571.49,1251.64,2569.6,1252.21,2567.73,1252.21z
						 M2625.92,1199.29c-2.16,0-4.32-0.76-6.07-2.3c-3.8-3.35-4.16-9.15-0.81-12.95c6.44-7.29,12.64-14.93,18.42-22.72
						c3.02-4.06,8.77-4.91,12.84-1.89c4.06,3.03,4.91,8.77,1.89,12.84c-6.09,8.19-12.62,16.24-19.39,23.91
						C2630.99,1198.24,2628.46,1199.29,2625.92,1199.29z M2671.18,1134.96c-1.49,0-3.01-0.37-4.41-1.14
						c-4.44-2.44-6.06-8.02-3.62-12.46c4.68-8.52,9.06-17.33,12.99-26.2c2.06-4.63,7.49-6.72,12.11-4.66
						c4.63,2.06,6.72,7.48,4.66,12.11c-4.15,9.34-8.75,18.62-13.68,27.59C2677.55,1133.24,2674.41,1134.96,2671.18,1134.96z
						 M2701.22,1062.22c-0.84,0-1.7-0.12-2.54-0.36c-4.87-1.4-7.68-6.49-6.28-11.35c2.68-9.32,5-18.87,6.9-28.41
						c0.99-4.97,5.83-8.19,10.79-7.21c4.97,0.99,8.2,5.82,7.21,10.79c-1.99,10.04-4.44,20.1-7.26,29.91
						C2708.87,1059.6,2705.2,1062.22,2701.22,1062.22z M2714.54,984.72c-0.19,0-0.38-0.01-0.57-0.02c-5.06-0.31-8.91-4.66-8.6-9.72
						c0.44-7.14,0.66-14.38,0.66-21.52c0-2.58-0.03-5.16-0.09-7.73c-0.11-5.07,3.91-9.26,8.97-9.37c5.13-0.21,9.26,3.91,9.37,8.97
						c0.06,2.71,0.09,5.42,0.09,8.14c0,7.51-0.23,15.13-0.69,22.63C2723.39,980.97,2719.35,984.72,2714.54,984.72z"/>
					<path class="st37" d="M2152.56,1255.48c-1.82,0-3.66-0.54-5.27-1.67c-4.06-2.86-8.14-5.85-12.13-8.91
						c-4.02-3.08-4.79-8.84-1.7-12.86c3.08-4.02,8.84-4.79,12.86-1.7c3.78,2.9,7.66,5.75,11.52,8.46c4.15,2.91,5.15,8.63,2.23,12.78
						C2158.29,1254.12,2155.45,1255.48,2152.56,1255.48z"/>
				</g>
				<g>
					<linearGradient id="SVGID_24_" gradientUnits="userSpaceOnUse" x1="3600.623" y1="1496.4908" x2="1677.7474" y2="652.3032">
						<stop  offset="0" style="stop-color:#FCB9B2"/>
						<stop  offset="1" style="stop-color:#B23A48"/>
					</linearGradient>
					<path class="st38" d="M2164.95,1149.05c1.16,1.42,3.09,1.95,4.8,1.31l48.99-18.01c19.31,14.87,41.13,26.77,64.86,34.93
						l11.95,50.77c0.42,1.78,1.92,3.1,3.74,3.28l62.29,6.31c1.82,0.18,3.56-0.81,4.32-2.47l21.89-47.35
						c24.88-3.23,48.64-10.51,70.54-21.21l44.38,27.47c1.56,0.96,3.55,0.83,4.97-0.32l48.51-39.58c1.42-1.16,1.95-3.09,1.31-4.8
						l-18.01-48.99c14.87-19.31,26.77-41.13,34.93-64.86l50.77-11.95c1.78-0.42,3.1-1.92,3.28-3.74l6.31-62.29
						c0.18-1.82-0.81-3.56-2.47-4.32l-47.35-21.89c-3.23-24.88-10.51-48.64-21.21-70.54l27.47-44.38c0.96-1.55,0.83-3.55-0.32-4.97
						l-39.58-48.51c-1.16-1.42-3.09-1.95-4.8-1.31l-48.99,18.01c-19.31-14.87-41.13-26.77-64.86-34.93l-11.95-50.77
						c-0.42-1.78-1.92-3.1-3.74-3.28l-62.29-6.31c-1.82-0.18-3.56,0.81-4.32,2.47l-21.89,47.35c-24.88,3.23-48.64,10.51-70.54,21.21
						l-44.38-27.47c-1.56-0.96-3.55-0.83-4.97,0.32l-48.51,39.58c-1.42,1.16-1.95,3.09-1.31,4.8l18.01,48.99
						c-14.87,19.31-26.77,41.13-34.93,64.86l-50.77,11.95c-1.78,0.42-3.1,1.92-3.28,3.74l-6.31,62.29
						c-0.18,1.82,0.81,3.56,2.47,4.33l47.35,21.89c3.23,24.88,10.51,48.64,21.21,70.54l-27.47,44.38c-0.96,1.56-0.83,3.55,0.32,4.97
						L2164.95,1149.05z"/>
					<path class="st39" d="M2358.09,1013.94c-30.68,0-57.61-22.53-62.22-53.76c-5.06-34.33,18.75-66.37,53.08-71.43
						c16.63-2.46,33.22,1.72,46.71,11.75c13.49,10.02,22.27,24.71,24.72,41.34c5.06,34.33-18.75,66.37-53.08,71.43
						C2364.21,1013.72,2361.13,1013.94,2358.09,1013.94z M2358.23,902.75c-2.37,0-4.75,0.17-7.14,0.52
						c-26.32,3.88-44.58,28.45-40.7,54.77c3.88,26.32,28.44,44.59,54.77,40.7c26.32-3.88,44.58-28.45,40.7-54.77
						c-1.88-12.75-8.61-24.01-18.96-31.69C2378.5,906.03,2368.52,902.75,2358.23,902.75z"/>
					<path class="st39" d="M2359.37,1104.84c-5.27,0-10.57-0.27-15.88-0.8l0,0c-1.67-0.17-3.34-0.37-5.01-0.59
						c-8.22-1.1-16.33-2.85-24.22-5.23c-0.11-0.03-0.22-0.06-0.32-0.1c-0.3-0.09-0.61-0.19-0.91-0.28
						c-0.59-0.18-1.18-0.37-1.77-0.56c-1.55-0.5-2.54-1.94-2.54-3.49c0-0.38,0.06-0.76,0.18-1.14c0.62-1.93,2.7-2.98,4.62-2.36
						c9.92,3.22,20.26,5.38,30.72,6.44c51.96,5.27,100.45-17.26,130.64-55.5c16.8-21.26,27.93-47.39,30.86-76.29
						c0.51-5.07,0.77-10.13,0.77-15.15c0-33.82-11.54-66.34-33.21-92.89c-24.89-30.5-60.17-49.49-99.34-53.46
						c-80.9-8.19-153.31,50.93-161.5,131.79c-0.51,4.99-0.76,9.98-0.75,14.96c0,21.57,4.73,42.91,13.91,62.45
						c0.24,0.51,0.35,1.04,0.35,1.56c0,1.38-0.78,2.7-2.11,3.32c-1.84,0.86-4.02,0.08-4.88-1.76c-9.64-20.52-14.6-42.92-14.6-65.56
						c0-5.23,0.26-10.47,0.79-15.7c8.6-84.89,84.68-146.95,169.55-138.36c41.12,4.16,78.16,24.1,104.29,56.12
						c22.75,27.88,34.86,62.02,34.87,97.52c0,5.28-0.27,10.58-0.8,15.9c-4.17,41.12-24.1,78.16-56.12,104.29
						C2429.03,1092.72,2394.88,1104.84,2359.37,1104.84z"/>
				</g>
			</g>
			<g>
				<g class="st36">
					<path class="st37" d="M1689.39,1242.46c-2.45,0-4.71-1.6-5.43-4.07c-1.36-4.62-2.59-9.34-3.67-14.03
						c-0.7-3.05,1.2-6.09,4.26-6.79c3.05-0.71,6.09,1.21,6.79,4.26c1.03,4.47,2.2,8.97,3.49,13.38c0.88,3-0.84,6.15-3.84,7.03
						C1690.46,1242.39,1689.92,1242.46,1689.39,1242.46z"/>
					<path class="st37" d="M1681.01,1199.68c-2.87,0-5.33-2.18-5.63-5.09c-0.84-8.24-1.27-16.62-1.27-24.9
						c0-1.74,0.02-3.49,0.06-5.25c0.07-3.13,2.83-5.5,5.79-5.55c3.13,0.07,5.61,2.66,5.55,5.78c-0.04,1.68-0.06,3.35-0.06,5.01
						c0,7.9,0.41,15.89,1.21,23.75c0.32,3.12-1.95,5.89-5.06,6.22C1681.39,1199.67,1681.2,1199.68,1681.01,1199.68z
						 M1682.25,1140.85c-0.27,0-0.54-0.02-0.81-0.05c-3.1-0.45-5.25-3.32-4.8-6.42c1.43-9.94,3.49-19.88,6.12-29.54
						c0.82-3.02,3.95-4.79,6.96-3.98c3.02,0.82,4.8,3.93,3.98,6.96c-2.51,9.21-4.47,18.7-5.84,28.18
						C1687.44,1138.82,1685.02,1140.85,1682.25,1140.85z M1697.72,1084.08c-0.72,0-1.45-0.14-2.16-0.43
						c-2.89-1.19-4.27-4.51-3.08-7.4c3.82-9.27,8.26-18.41,13.2-27.15c1.54-2.73,4.99-3.69,7.72-2.14c2.72,1.54,3.68,5,2.14,7.72
						c-4.71,8.33-8.95,17.04-12.58,25.88C1702.07,1082.76,1699.95,1084.08,1697.72,1084.08z M1726.68,1032.85
						c-1.17,0-2.35-0.36-3.37-1.11c-2.51-1.86-3.04-5.42-1.18-7.93c5.99-8.07,12.52-15.83,19.43-23.08
						c2.16-2.26,5.75-2.34,8.01-0.19c2.27,2.16,2.35,5.74,0.19,8.01c-6.59,6.91-12.83,14.32-18.53,22.01
						C1730.13,1032.06,1728.42,1032.85,1726.68,1032.85z M1767.27,990.25c-1.64,0-3.27-0.71-4.39-2.08
						c-1.98-2.42-1.63-5.99,0.79-7.97c7.76-6.36,15.98-12.3,24.44-17.66c2.65-1.68,6.15-0.89,7.82,1.75
						c1.67,2.65,0.89,6.15-1.75,7.82c-8.07,5.11-15.92,10.78-23.32,16.85C1769.81,989.83,1768.54,990.25,1767.27,990.25z
						 M1816.97,958.79c-2.12,0-4.16-1.2-5.13-3.25c-1.34-2.83-0.12-6.2,2.7-7.54c9.07-4.28,18.5-8.04,28.01-11.16
						c2.99-0.97,6.18,0.65,7.15,3.62c0.98,2.97-0.64,6.18-3.62,7.15c-9.07,2.98-18.06,6.56-26.7,10.64
						C1818.6,958.62,1817.78,958.79,1816.97,958.79z M1872.83,940.45c-2.66,0-5.03-1.88-5.56-4.58c-0.6-3.07,1.4-6.05,4.47-6.65
						c9.81-1.92,19.87-3.25,29.91-3.95c3.13-0.17,5.83,2.14,6.05,5.26c0.22,3.12-2.14,5.83-5.26,6.05
						c-9.57,0.66-19.17,1.93-28.52,3.76C1873.56,940.41,1873.19,940.45,1872.83,940.45z M1960.82,939.73c-0.33,0-0.66-0.03-1-0.09
						c-8.14-1.44-16.49-2.47-24.84-3.04c-1.26-0.09-2.51-0.17-3.75-0.23c-3.13-0.17-5.53-2.83-5.37-5.95
						c0.16-3.13,2.85-5.62,5.95-5.37c1.32,0.07,2.64,0.15,3.97,0.25c8.72,0.6,17.48,1.68,26.01,3.19c3.08,0.55,5.14,3.49,4.59,6.57
						C1965.9,937.8,1963.52,939.73,1960.82,939.73z"/>
				</g>
				<g class="st36">
					<path class="st37" d="M1922.21,1414.21c-3.09,0-5.62-2.49-5.66-5.6c-0.04-3.13,2.46-5.7,5.59-5.74
						c9.42-0.12,18.92-0.82,28.22-2.08c3.09-0.39,5.96,1.75,6.38,4.86c0.42,3.1-1.76,5.95-4.86,6.38
						c-9.76,1.31-19.71,2.05-29.59,2.18C1922.26,1414.21,1922.23,1414.21,1922.21,1414.21z M1893.25,1412.84
						c-0.21,0-0.41-0.01-0.61-0.03c-9.81-1.05-19.66-2.71-29.26-4.93c-3.05-0.71-4.95-3.75-4.24-6.8c0.7-3.06,3.76-4.94,6.8-4.25
						c9.17,2.12,18.56,3.7,27.92,4.71c3.11,0.33,5.36,3.13,5.03,6.24C1898.56,1410.69,1896.1,1412.84,1893.25,1412.84z
						 M1979.55,1406.46c-2.51,0-4.81-1.68-5.48-4.23c-0.79-3.02,1.01-6.12,4.04-6.92c9.12-2.4,18.16-5.37,26.89-8.84
						c2.92-1.15,6.2,0.27,7.36,3.18c1.16,2.91-0.27,6.2-3.17,7.36c-9.15,3.64-18.63,6.75-28.19,9.26
						C1980.51,1406.4,1980.03,1406.46,1979.55,1406.46z M1836.84,1399.77c-0.64,0-1.3-0.11-1.94-0.34
						c-9.28-3.38-18.43-7.37-27.22-11.86c-2.79-1.42-3.89-4.84-2.47-7.63c1.42-2.78,4.84-3.88,7.62-2.47
						c8.38,4.28,17.11,8.08,25.95,11.31c2.94,1.07,4.45,4.33,3.38,7.27C1841.33,1398.34,1839.16,1399.77,1836.84,1399.77z
						 M2033.32,1385.08c-2.01,0-3.95-1.07-4.98-2.95c-1.5-2.75-0.49-6.19,2.25-7.69c8.25-4.5,16.32-9.56,23.97-15.04
						c2.55-1.83,6.09-1.23,7.91,1.31c1.82,2.55,1.23,6.09-1.31,7.91c-8.02,5.74-16.48,11.05-25.13,15.77
						C2035.16,1384.86,2034.23,1385.08,2033.32,1385.08z M2080.39,1351.43c-1.54,0-3.06-0.62-4.18-1.84
						c-2.11-2.31-1.96-5.89,0.35-8.01c6.95-6.37,13.58-13.22,19.69-20.34c2.04-2.38,5.62-2.65,7.99-0.61
						c2.38,2.04,2.65,5.61,0.61,7.99c-6.41,7.48-13.35,14.65-20.64,21.33C2083.12,1350.93,2081.75,1351.43,2080.39,1351.43z
						 M2118.04,1307.46c-1.08,0-2.17-0.3-3.14-0.95c-2.61-1.73-3.31-5.25-1.58-7.86c5.23-7.84,10.01-16.08,14.23-24.47
						c1.41-2.79,4.81-3.92,7.61-2.52c2.8,1.41,3.93,4.81,2.52,7.61c-4.42,8.8-9.44,17.44-14.92,25.67
						C2121.67,1306.58,2119.87,1307.46,2118.04,1307.46z"/>
					<path class="st37" d="M1785.06,1373.31c-1.09,0-2.2-0.32-3.17-0.97c-4.02-2.72-7.97-5.57-11.76-8.47
						c-2.48-1.9-2.96-5.46-1.05-7.95c1.91-2.47,5.46-2.95,7.95-1.05c3.61,2.77,7.38,5.48,11.22,8.08c2.59,1.75,3.27,5.28,1.52,7.87
						C1788.66,1372.43,1786.87,1373.31,1785.06,1373.31z"/>
				</g>
				<g>
					<linearGradient id="SVGID_25_" gradientUnits="userSpaceOnUse" x1="3449.7644" y1="1839.5999" x2="1526.8904" y2="995.413">
						<stop  offset="0" style="stop-color:#FCB9B2"/>
						<stop  offset="1" style="stop-color:#B23A48"/>
					</linearGradient>
					<path class="st40" d="M1789.77,1300.1c0.77,0.95,2.06,1.3,3.21,0.88l32.78-12.05c12.92,9.95,27.52,17.92,43.4,23.37l7.99,33.98
						c0.28,1.19,1.29,2.07,2.5,2.2l41.68,4.22c1.22,0.12,2.38-0.54,2.89-1.65l14.65-31.68c16.65-2.16,32.55-7.03,47.2-14.19
						l29.7,18.38c1.04,0.64,2.38,0.56,3.32-0.22l32.46-26.49c0.95-0.77,1.3-2.07,0.88-3.21l-12.05-32.78
						c9.95-12.92,17.92-27.53,23.37-43.4l33.98-7.99c1.19-0.28,2.07-1.29,2.2-2.5l4.22-41.68c0.12-1.22-0.54-2.38-1.65-2.89
						l-31.68-14.65c-2.16-16.65-7.03-32.55-14.19-47.2l18.38-29.7c0.64-1.04,0.56-2.38-0.22-3.32l-26.49-32.46
						c-0.77-0.95-2.06-1.3-3.21-0.88l-32.78,12.06c-12.92-9.95-27.52-17.92-43.4-23.37l-8-33.98c-0.28-1.19-1.29-2.07-2.5-2.2
						l-41.68-4.22c-1.22-0.12-2.38,0.54-2.89,1.65l-14.65,31.68c-16.65,2.16-32.55,7.03-47.2,14.19l-29.7-18.38
						c-1.04-0.64-2.38-0.56-3.32,0.22l-32.46,26.49c-0.95,0.77-1.3,2.06-0.88,3.21l12.05,32.78c-9.95,12.92-17.92,27.53-23.37,43.4
						l-33.98,7.99c-1.19,0.28-2.07,1.29-2.2,2.5l-4.22,41.68c-0.12,1.22,0.54,2.38,1.65,2.89l31.68,14.65
						c2.16,16.65,7.03,32.55,14.19,47.2l-18.38,29.7c-0.64,1.04-0.56,2.38,0.22,3.32L1789.77,1300.1z"/>
					<path class="st39" d="M1918.94,1210.45c-9.14,0-18.01-2.92-25.48-8.47c-9.19-6.83-15.17-16.83-16.84-28.16
						c-3.45-23.38,12.77-45.2,36.15-48.66c23.42-3.41,45.22,12.78,48.66,36.16c1.67,11.33-1.17,22.63-8,31.82
						c-6.83,9.19-16.83,15.17-28.16,16.84C1923.17,1210.29,1921.05,1210.45,1918.94,1210.45z M1919.05,1136.04
						c-1.53,0-3.07,0.11-4.62,0.34c-17.2,2.54-29.13,18.59-26.59,35.8c1.23,8.33,5.63,15.69,12.39,20.71
						c6.76,5.03,15.07,7.11,23.41,5.89l0,0c8.33-1.23,15.69-5.63,20.71-12.39c5.03-6.76,7.11-15.07,5.89-23.41
						C1947.93,1147.33,1934.42,1136.04,1919.05,1136.04z"/>
					<path class="st39" d="M1919.76,1273.71c-3.59,0-7.2-0.18-10.84-0.55c-7.23-0.73-14.39-2.2-21.31-4.37
						c-0.31-0.1-0.62-0.2-0.93-0.3c-2.4-0.77-3.92-2.99-3.92-5.38c0-0.58,0.09-1.17,0.28-1.75c0.96-2.98,4.16-4.59,7.14-3.64
						c6.44,2.09,13.13,3.49,19.88,4.17h0c0.37,0.04,0.74,0.07,1.11,0.1c16.01,1.47,31.77-1.11,46.16-7.31
						c7.81-3.37,15.21-7.8,22.01-13.25c0.06-0.04,0.11-0.09,0.17-0.13c0.17-0.14,0.34-0.27,0.5-0.41
						c19.75-16.12,32.04-38.96,34.61-64.31c0.33-3.28,0.5-6.55,0.5-9.81c0-21.89-7.47-42.95-21.5-60.14
						c-16.12-19.75-38.96-32.03-64.31-34.6c-25.34-2.56-50.2,4.89-69.95,21c-19.75,16.12-32.04,38.96-34.61,64.31
						c-0.33,3.23-0.49,6.46-0.49,9.68c0,13.97,3.06,27.78,9,40.43c0.37,0.78,0.54,1.6,0.54,2.41c0,2.13-1.2,4.17-3.26,5.13
						c-2.84,1.32-6.21,0.12-7.54-2.72c-6.65-14.16-10.07-29.61-10.08-45.23c0-3.61,0.18-7.22,0.55-10.83
						c2.87-28.37,16.62-53.93,38.72-71.96c22.09-18.03,49.87-26.39,78.25-23.5c28.37,2.87,53.92,16.62,71.95,38.72
						c15.7,19.23,24.05,42.79,24.06,67.28c0,3.64-0.18,7.3-0.55,10.97C2020.32,1232.64,1973.82,1273.71,1919.76,1273.71z"/>
				</g>
			</g>
		</g>
	</g>
</g>
</svg>
