<?xml version="1.0" encoding="utf-8"?>
<!-- Generator: Adobe Illustrator 24.0.1, SVG Export Plug-In . SVG Version: 6.00 Build 0)  -->
<svg version="1.1" id="Layer_1" xmlns="http://www.w3.org/2000/svg" xmlns:xlink="http://www.w3.org/1999/xlink" x="0px" y="0px"
	 viewBox="0 0 512 512" style="enable-background:new 0 0 512 512;" xml:space="preserve">
<style type="text/css">
	.st0{fill:#461220;}
	.st1{fill:#B23A48;}
	.st2{fill:#9F3541;}
	.st3{fill:#993333;}
	.st4{fill:#8C2F39;}
</style>
<g>
	<path class="st0" d="M168.6,206.7c-13.2,0-20.1-16.1-10.6-25.6l64.3-64.3c5.9-5.9,15.4-5.9,21.2,0c5.9,5.9,5.9,15.4,0,21.2
		l-64.3,64.3C176.3,205.3,172.4,206.7,168.6,206.7z"/>
	<path class="st0" d="M24,174.6c-8.3,0-15-6.7-15-15v-32.1c0-4,1.6-7.8,4.4-10.6l48.2-48.2c5.9-5.9,15.4-5.9,21.2,0
		c5.9,5.9,5.9,15.4,0,21.2L39,133.7v25.9C39,167.9,32.3,174.6,24,174.6z"/>
	<path class="st0" d="M120.4,512c-13.2,0-20.1-16.1-10.6-25.6l27.7-27.7V352.4c0-4,1.6-7.8,4.4-10.6l71.8-71.8
		c5.9-5.9,15.4-5.9,21.2,0c5.9,5.9,5.9,15.4,0,21.2l-67.4,67.4v106.3c0,4-1.6,7.8-4.4,10.6L131,507.6
		C128.1,510.5,124.2,512,120.4,512z"/>
	<path class="st0" d="M59.1,333.4c-5.9-5.9-5.9-15.4,0-21.2l66.8-66.8c2.8-2.8,6.6-4.4,10.6-4.4h87.8c8.3,0,15,6.7,15,15
		s-6.7,15-15,15h-81.6l-62.4,62.4C74.4,339.2,64.9,339.2,59.1,333.4z"/>
	<path class="st0" d="M222.3,57.7L194.5,30h-25.9c-8.3,0-15-6.7-15-15s6.7-15,15-15h32.1c4,0,7.8,1.6,10.6,4.4l32.1,32.1
		c5.9,5.9,5.9,15.4,0,21.2C237.6,63.6,228.1,63.6,222.3,57.7z"/>
</g>
<path class="st0" d="M270.5,57.7c-5.9-5.9-5.9-15.4,0-21.2l32.1-32.1c2.8-2.8,6.6-4.4,10.6-4.4h32.1c8.3,0,15,6.7,15,15
	s-6.7,15-15,15h-25.9l-27.7,27.7C285.8,63.6,276.3,63.6,270.5,57.7z"/>
<path class="st0" d="M345.4,206.7c13.2,0,20.1-16.1,10.6-25.6l-64.3-64.3c-5.9-5.9-15.4-5.9-21.2,0c-5.9,5.9-5.9,15.4,0,21.2
	l64.3,64.3C337.7,205.3,341.5,206.7,345.4,206.7z"/>
<path class="st0" d="M490,174.6c8.3,0,15-6.7,15-15v-32.1c0-4-1.6-7.8-4.4-10.6l-48.2-48.2c-5.9-5.9-15.4-5.9-21.2,0
	c-5.9,5.9-5.9,15.4,0,21.2l43.8,43.8v25.9C475,167.9,481.7,174.6,490,174.6z"/>
<path class="st0" d="M393.6,512c13.2,0,20.1-16.1,10.6-25.6l-27.7-27.7V352.4c0-4-1.6-7.8-4.4-10.6L300.3,270
	c-5.9-5.9-15.4-5.9-21.2,0c-5.9,5.9-5.9,15.4,0,21.2l67.4,67.4v106.3c0,4,1.6,7.8,4.4,10.6l32.1,32.1
	C385.9,510.5,389.7,512,393.6,512z"/>
<path class="st0" d="M454.9,333.4c5.9-5.9,5.9-15.4,0-21.2l-66.8-66.8c-2.8-2.8-6.6-4.4-10.6-4.4h-87.8c-8.3,0-15,6.7-15,15
	s6.7,15,15,15h81.6l62.4,62.4C439.5,339.2,449,339.2,454.9,333.4z"/>
<path class="st1" d="M273.1,110.3h-32.2c-21.6,0-39.1-17.4-39.1-39.1c0-21.6,17.5-39.1,39.1-39.1H273c21.6,0,39.1,17.4,39.1,39.1
	C312.1,92.8,294.6,110.3,273.1,110.3z"/>
<path class="st1" d="M273,32.1H257v78.2H273c5.2,0,10.2-1,14.7-2.9c14.3-5.8,24.4-19.9,24.4-36.2C312.1,49.6,294.6,32.1,273,32.1z"
	/>
<path class="st1" d="M257,495.9c-30.4,0-54.6-25.7-52.8-56l13.7-233c0.5-7.9,7-14.1,15-14.1h48.2c7.9,0,14.5,6.2,15,14.1l13.7,233
	C311.5,470.2,287.4,495.9,257,495.9z"/>
<path class="st2" d="M309.7,440l-13.7-232.5l0-0.5c-0.5-7.9-7-14.1-15-14.1H257v303.1h0C287.4,495.9,311.5,470.2,309.7,440z"/>
<path class="st3" d="M281.1,222.8h-48.2c-8.3,0-15-6.7-15-15v-67.4c0-23.2,11.5-44.7,30.8-57.5c2.5-1.6,5.4-2.5,8.3-2.5
	c3,0,5.9,0.9,8.3,2.5c19.3,12.9,30.8,34.3,30.8,57.5v67.4C296.1,216.1,289.4,222.8,281.1,222.8z"/>
<path class="st4" d="M161.9,205.1c0,0-18.3-9.1-38.9-19.5c-19.8-9.9-36.4-25.1-48-43.9C63.3,123,57.2,101.4,57.2,79.3
	c0-5.2,2.7-10,7.1-12.8c4.4-2.7,9.9-3,14.6-0.7c0,0,18.3,9.1,38.9,19.5c19.8,9.9,36.4,25.1,48,43.9c11.6,18.8,17.8,40.4,17.8,62.6
	c0,5.2-2.7,10-7.1,12.8C172.1,207.2,166.5,207.5,161.9,205.1z"/>
<path class="st4" d="M287.7,107.5c-5.3-9.8-12.9-18.2-22.4-24.6c-2.5-1.6-5.4-2.5-8.3-2.5h0v142.5h24.1c8.3,0,15-6.7,15-15v-67.4
	C296.1,128.7,293.1,117.4,287.7,107.5z"/>
<path class="st4" d="M337.5,204.5c-4.4-2.7-7.1-7.6-7.1-12.8c0-22.1,6.1-43.7,17.8-62.6c11.6-18.8,28.2-34,48-43.9
	C416.8,75,435,65.9,435.1,65.9c4.6-2.3,10.2-2.1,14.6,0.7c4.4,2.7,7.1,7.6,7.1,12.8c0,22.1-6.1,43.7-17.8,62.6
	c-11.6,18.8-28.2,34-48,43.9c-20.6,10.3-38.9,19.5-38.9,19.5C347.4,207.5,341.9,207.2,337.5,204.5z"/>
</svg>
